solid Onshape
  facet normal 0 0 -1
    outer loop
      vertex 4.65845 0.490572 0
      vertex -6 -1.0842e-15 0
      vertex -6.30448 1.53073 0
    endloop
  endfacet
  facet normal 0 0 -1
    outer loop
      vertex -14.8913 -1.03688 0
      vertex -14.9749 -0.5 0
      vertex -13.9005 -0.5 0
    endloop
  endfacet
  facet normal 0 0 -1
    outer loop
      vertex -13.7244 3.33598 0
      vertex -13.3541 3.7081 0
      vertex -12.8284 2.82843 0
    endloop
  endfacet
  facet normal 0 0 -1
    outer loop
      vertex -9.74256 -4.99337 0
      vertex -10 -4 0
      vertex -9.20225 -4.93595 0
    endloop
  endfacet
  facet normal 0 0 -1
    outer loop
      vertex -10 -4 0
      vertex -8.46927 -3.69552 0
      vertex -9.20225 -4.93595 0
    endloop
  endfacet
  facet normal 0 0 -1
    outer loop
      vertex -9.20225 -4.93595 0
      vertex -8.46927 -3.69552 0
      vertex -8.67135 -4.82024 0
    endloop
  endfacet
  facet normal 0 0 -1
    outer loop
      vertex -8.46927 -3.69552 0
      vertex -8.15616 -4.64761 0
      vertex -8.67135 -4.82024 0
    endloop
  endfacet
  facet normal 0 0 -1
    outer loop
      vertex -14.8913 -1.03688 0
      vertex -13.9005 -0.5 0
      vertex -14.7499 -1.56151 0
    endloop
  endfacet
  facet normal 0 0 -1
    outer loop
      vertex -13.9005 -0.5 0
      vertex -13.6955 -1.53073 0
      vertex -14.7499 -1.56151 0
    endloop
  endfacet
  facet normal 0 0 -1
    outer loop
      vertex -14.7499 -1.56151 0
      vertex -13.6955 -1.53073 0
      vertex -14.5524 -2.06771 0
    endloop
  endfacet
  facet normal 0 0 -1
    outer loop
      vertex -6.36968 -3.43813 0
      vertex -7.17157 -2.82843 0
      vertex -6.01804 -3.0239 0
    endloop
  endfacet
  facet normal 0 0 -1
    outer loop
      vertex -7.17157 -2.82843 0
      vertex -6.30448 -1.53073 0
      vertex -6.01804 -3.0239 0
    endloop
  endfacet
  facet normal 0 0 -1
    outer loop
      vertex -6.01804 -3.0239 0
      vertex -6.30448 -1.53073 0
      vertex -5.84957 -2.88564 0
    endloop
  endfacet
  facet normal 0 0 -1
    outer loop
      vertex -12.0396 4.56508 0
      vertex -11.5307 3.69552 0
      vertex -12.507 4.32606 0
    endloop
  endfacet
  facet normal 0 0 -1
    outer loop
      vertex -11.5307 3.69552 0
      vertex -12.8284 2.82843 0
      vertex -12.507 4.32606 0
    endloop
  endfacet
  facet normal 0 0 -1
    outer loop
      vertex -12.507 4.32606 0
      vertex -12.8284 2.82843 0
      vertex -12.9468 4.03934 0
    endloop
  endfacet
  facet normal 0 0 -1
    outer loop
      vertex -12.8284 2.82843 0
      vertex -13.3541 3.7081 0
      vertex -12.9468 4.03934 0
    endloop
  endfacet
  facet normal 0 0 -1
    outer loop
      vertex -14.5524 -2.06771 0
      vertex -13.6955 -1.53073 0
      vertex -14.3012 -2.54948 0
    endloop
  endfacet
  facet normal 0 0 -1
    outer loop
      vertex -13.6955 -1.53073 0
      vertex -12.8284 -2.82843 0
      vertex -14.3012 -2.54948 0
    endloop
  endfacet
  facet normal 0 0 -1
    outer loop
      vertex -14.3012 -2.54948 0
      vertex -12.8284 -2.82843 0
      vertex -13.9991 -3.00115 0
    endloop
  endfacet
  facet normal 0 0 -1
    outer loop
      vertex -12.8267 -4.12432 0
      vertex -13.2575 -3.79325 0
      vertex -12.8284 -2.82843 0
    endloop
  endfacet
  facet normal 0 0 -1
    outer loop
      vertex -13.2575 -3.79325 0
      vertex -13.6499 -3.41738 0
      vertex -12.8284 -2.82843 0
    endloop
  endfacet
  facet normal 0 0 -1
    outer loop
      vertex -12.8284 -2.82843 0
      vertex -13.6499 -3.41738 0
      vertex -13.9991 -3.00115 0
    endloop
  endfacet
  facet normal 0 0 -1
    outer loop
      vertex -6.36968 -3.43813 0
      vertex -6.76418 -3.81176 0
      vertex -7.17157 -2.82843 0
    endloop
  endfacet
  facet normal 0 0 -1
    outer loop
      vertex -6.76418 -3.81176 0
      vertex -7.19691 -4.14037 0
      vertex -7.17157 -2.82843 0
    endloop
  endfacet
  facet normal 0 0 -1
    outer loop
      vertex -7.17157 -2.82843 0
      vertex -7.19691 -4.14037 0
      vertex -8.46927 -3.69552 0
    endloop
  endfacet
  facet normal 0 0 -1
    outer loop
      vertex -7.19691 -4.14037 0
      vertex -7.66273 -4.42009 0
      vertex -8.46927 -3.69552 0
    endloop
  endfacet
  facet normal 0 0 -1
    outer loop
      vertex -8.46927 -3.69552 0
      vertex -7.66273 -4.42009 0
      vertex -8.15616 -4.64761 0
    endloop
  endfacet
  facet normal 0 0 -1
    outer loop
      vertex 4.65845 0.490572 0
      vertex 1.67183 0.264409 0
      vertex -6 -1.0842e-15 0
    endloop
  endfacet
  facet normal 0 0 -1
    outer loop
      vertex 1.67183 0.264409 0
      vertex -6.50521e-16 2.1684e-16 0
      vertex -6 -1.0842e-15 0
    endloop
  endfacet
  facet normal 0 0 -1
    outer loop
      vertex -6 -1.0842e-15 0
      vertex -6.50521e-16 2.1684e-16 0
      vertex -1.44327 -0.370837 0
    endloop
  endfacet
  facet normal 0 0 -1
    outer loop
      vertex -14.7613 1.52652 0
      vertex -14.575 2.01733 0
      vertex -13.6955 1.53073 0
    endloop
  endfacet
  facet normal 0 0 -1
    outer loop
      vertex -14.575 2.01733 0
      vertex -14.3382 2.48591 0
      vertex -13.6955 1.53073 0
    endloop
  endfacet
  facet normal 0 0 -1
    outer loop
      vertex -13.6955 1.53073 0
      vertex -14.3382 2.48591 0
      vertex -12.8284 2.82843 0
    endloop
  endfacet
  facet normal 0 0 -1
    outer loop
      vertex -14.3382 2.48591 0
      vertex -14.0537 2.92708 0
      vertex -12.8284 2.82843 0
    endloop
  endfacet
  facet normal 0 0 -1
    outer loop
      vertex -12.8284 2.82843 0
      vertex -14.0537 2.92708 0
      vertex -13.7244 3.33598 0
    endloop
  endfacet
  facet normal 0 0 -1
    outer loop
      vertex -14.7613 1.52652 0
      vertex -13.6955 1.53073 0
      vertex -14.8951 1.01888 0
    endloop
  endfacet
  facet normal 0 0 -1
    outer loop
      vertex -13.6955 1.53073 0
      vertex -13.9005 0.5 0
      vertex -14.8951 1.01888 0
    endloop
  endfacet
  facet normal 0 0 -1
    outer loop
      vertex -14.8951 1.01888 0
      vertex -13.9005 0.5 0
      vertex -14.9749 0.5 0
    endloop
  endfacet
  facet normal 0 0 -1
    outer loop
      vertex -12.8267 -4.12432 0
      vertex -12.8284 -2.82843 0
      vertex -12.3624 -4.40669 0
    endloop
  endfacet
  facet normal 0 0 -1
    outer loop
      vertex -12.8284 -2.82843 0
      vertex -11.5307 -3.69552 0
      vertex -12.3624 -4.40669 0
    endloop
  endfacet
  facet normal 0 0 -1
    outer loop
      vertex -12.3624 -4.40669 0
      vertex -11.5307 -3.69552 0
      vertex -11.8703 -4.63702 0
    endloop
  endfacet
  facet normal 0 0 -1
    outer loop
      vertex -9.74256 -4.99337 0
      vertex -10.2859 -4.99182 0
      vertex -10 -4 0
    endloop
  endfacet
  facet normal 0 0 -1
    outer loop
      vertex -10.2859 -4.99182 0
      vertex -10.8259 -4.93132 0
      vertex -10 -4 0
    endloop
  endfacet
  facet normal 0 0 -1
    outer loop
      vertex -10 -4 0
      vertex -10.8259 -4.93132 0
      vertex -11.5307 -3.69552 0
    endloop
  endfacet
  facet normal 0 0 -1
    outer loop
      vertex -10.8259 -4.93132 0
      vertex -11.3561 -4.81259 0
      vertex -11.5307 -3.69552 0
    endloop
  endfacet
  facet normal 0 0 -1
    outer loop
      vertex -11.5307 -3.69552 0
      vertex -11.3561 -4.81259 0
      vertex -11.8703 -4.63702 0
    endloop
  endfacet
  facet normal 0 0 -1
    outer loop
      vertex -1.44327 -0.370837 0
      vertex -2.527 -0.772075 0
      vertex -6 -1.0842e-15 0
    endloop
  endfacet
  facet normal 0 0 -1
    outer loop
      vertex -2.527 -0.772075 0
      vertex -3.53142 -1.26361 0
      vertex -6 -1.0842e-15 0
    endloop
  endfacet
  facet normal 0 0 -1
    outer loop
      vertex -6 -1.0842e-15 0
      vertex -3.53142 -1.26361 0
      vertex -6.30448 -1.53073 0
    endloop
  endfacet
  facet normal 0 0 -1
    outer loop
      vertex -3.53142 -1.26361 0
      vertex -4.45165 -1.82974 0
      vertex -6.30448 -1.53073 0
    endloop
  endfacet
  facet normal 0 0 -1
    outer loop
      vertex -6.30448 -1.53073 0
      vertex -4.45165 -1.82974 0
      vertex -5.84957 -2.88564 0
    endloop
  endfacet
  facet normal 0 0 -1
    outer loop
      vertex 18.1436 1.52934 0
      vertex 17.1811 -0.0394793 0
      vertex 16.3109 2.54116 0
    endloop
  endfacet
  facet normal 0 0 -1
    outer loop
      vertex 17.1811 -0.0394793 0
      vertex 16.809 9.08789e-13 0
      vertex 16.3109 2.54116 0
    endloop
  endfacet
  facet normal 0 0 -1
    outer loop
      vertex 16.3109 2.54116 0
      vertex 16.809 9.08789e-13 0
      vertex 12.948 4.03046 0
    endloop
  endfacet
  facet normal 0 0 -1
    outer loop
      vertex 16.809 9.08789e-13 0
      vertex 13.6591 0.276371 0
      vertex 12.948 4.03046 0
    endloop
  endfacet
  facet normal 0 0 -1
    outer loop
      vertex 12.948 4.03046 0
      vertex 13.6591 0.276371 0
      vertex 10 5 0
    endloop
  endfacet
  facet normal 0 0 -1
    outer loop
      vertex 13.6591 0.276371 0
      vertex 10 0.477502 0
      vertex 10 5 0
    endloop
  endfacet
  facet normal 0 0 -1
    outer loop
      vertex 10 5 0
      vertex 10 0.477502 0
      vertex 7.88162 5.48313 0
    endloop
  endfacet
  facet normal 0 0 -1
    outer loop
      vertex 10 0.477502 0
      vertex 4.65845 0.490572 0
      vertex 7.88162 5.48313 0
    endloop
  endfacet
  facet normal 0 0 -1
    outer loop
      vertex 7.88162 5.48313 0
      vertex 4.65845 0.490572 0
      vertex 5.02426 5.87246 0
    endloop
  endfacet
  facet normal 0 0 -1
    outer loop
      vertex 4.65845 0.490572 0
      vertex -6.30448 1.53073 0
      vertex 5.02426 5.87246 0
    endloop
  endfacet
  facet normal 0 0 -1
    outer loop
      vertex 5.02426 5.87246 0
      vertex -6.30448 1.53073 0
      vertex 1.68497 6.01162 0
    endloop
  endfacet
  facet normal 0 0 -1
    outer loop
      vertex -6.30448 1.53073 0
      vertex -2.87587 5.79853 0
      vertex 1.68497 6.01162 0
    endloop
  endfacet
  facet normal 0 0 -1
    outer loop
      vertex -12.0396 4.56508 0
      vertex -11.5497 4.75377 0
      vertex -11.5307 3.69552 0
    endloop
  endfacet
  facet normal 0 0 -1
    outer loop
      vertex -11.5497 4.75377 0
      vertex -11.0427 4.89006 0
      vertex -11.5307 3.69552 0
    endloop
  endfacet
  facet normal 0 0 -1
    outer loop
      vertex -11.5307 3.69552 0
      vertex -11.0427 4.89006 0
      vertex -10 4 0
    endloop
  endfacet
  facet normal 0 0 -1
    outer loop
      vertex -6.30448 1.53073 0
      vertex -7.17157 2.82843 0
      vertex -2.87587 5.79853 0
    endloop
  endfacet
  facet normal 0 0 -1
    outer loop
      vertex -7.17157 2.82843 0
      vertex -8.46927 3.69552 0
      vertex -2.87587 5.79853 0
    endloop
  endfacet
  facet normal 0 0 -1
    outer loop
      vertex -2.87587 5.79853 0
      vertex -8.46927 3.69552 0
      vertex -10 5 0
    endloop
  endfacet
  facet normal 0 0 -1
    outer loop
      vertex -8.46927 3.69552 0
      vertex -10 4 0
      vertex -10 5 0
    endloop
  endfacet
  facet normal 0 0 -1
    outer loop
      vertex -10 5 0
      vertex -10 4 0
      vertex -10.5243 4.97244 0
    endloop
  endfacet
  facet normal 0 0 -1
    outer loop
      vertex -10 4 0
      vertex -11.0427 4.89006 0
      vertex -10.5243 4.97244 0
    endloop
  endfacet
  facet normal 0 0 -1
    outer loop
      vertex 18.1436 1.52934 0
      vertex 19.0676 0.924885 0
      vertex 17.1811 -0.0394793 0
    endloop
  endfacet
  facet normal 0 0 -1
    outer loop
      vertex 19.0676 0.924885 0
      vertex 19.5387 0.561145 0
      vertex 17.1811 -0.0394793 0
    endloop
  endfacet
  facet normal 0 0 -1
    outer loop
      vertex 17.1811 -0.0394793 0
      vertex 19.5387 0.561145 0
      vertex 19.1952 -0.229884 0
    endloop
  endfacet
  facet normal 0 0 -1
    outer loop
      vertex 19.5387 0.561145 0
      vertex 19.752 0.365499 0
      vertex 19.1952 -0.229884 0
    endloop
  endfacet
  facet normal 0 0 -1
    outer loop
      vertex 19.1952 -0.229884 0
      vertex 19.752 0.365499 0
      vertex 19.5575 -0.230677 0
    endloop
  endfacet
  facet normal 0 0 -1
    outer loop
      vertex 19.752 0.365499 0
      vertex 19.7198 -0.215438 0
      vertex 19.5575 -0.230677 0
    endloop
  endfacet
  facet normal 0 0 -1
    outer loop
      vertex 20 2.49366e-15 0
      vertex 19.8964 -0.167793 0
      vertex 19.9887 0.043858 0
    endloop
  endfacet
  facet normal 0 0 -1
    outer loop
      vertex 19.8964 -0.167793 0
      vertex 19.7198 -0.215438 0
      vertex 19.9887 0.043858 0
    endloop
  endfacet
  facet normal 0 0 -1
    outer loop
      vertex 19.9887 0.043858 0
      vertex 19.7198 -0.215438 0
      vertex 19.8566 0.252125 0
    endloop
  endfacet
  facet normal 0 0 -1
    outer loop
      vertex 19.7198 -0.215438 0
      vertex 19.752 0.365499 0
      vertex 19.8566 0.252125 0
    endloop
  endfacet
  facet normal 0 0 1
    outer loop
      vertex -2.527 -0.772075 2
      vertex -1.44327 -0.370837 2
      vertex -6 -1.0842e-15 2
    endloop
  endfacet
  facet normal 0 0 1
    outer loop
      vertex -14.9749 0.5 2
      vertex -13.9005 0.5 2
      vertex -14.8951 1.01888 2
    endloop
  endfacet
  facet normal 0 0 1
    outer loop
      vertex -13.9005 0.5 2
      vertex -13.6955 1.53073 2
      vertex -14.8951 1.01888 2
    endloop
  endfacet
  facet normal 0 0 1
    outer loop
      vertex -14.8951 1.01888 2
      vertex -13.6955 1.53073 2
      vertex -14.7613 1.52652 2
    endloop
  endfacet
  facet normal 0 0 1
    outer loop
      vertex -12.8284 2.82843 2
      vertex -13.3541 3.7081 2
      vertex -13.7244 3.33598 2
    endloop
  endfacet
  facet normal 0 0 1
    outer loop
      vertex -13.7244 3.33598 2
      vertex -14.0537 2.92708 2
      vertex -12.8284 2.82843 2
    endloop
  endfacet
  facet normal 0 0 1
    outer loop
      vertex -14.0537 2.92708 2
      vertex -14.3382 2.48591 2
      vertex -12.8284 2.82843 2
    endloop
  endfacet
  facet normal 0 0 1
    outer loop
      vertex -12.8284 2.82843 2
      vertex -14.3382 2.48591 2
      vertex -13.6955 1.53073 2
    endloop
  endfacet
  facet normal 0 0 1
    outer loop
      vertex -14.3382 2.48591 2
      vertex -14.575 2.01733 2
      vertex -13.6955 1.53073 2
    endloop
  endfacet
  facet normal 0 0 1
    outer loop
      vertex -13.6955 1.53073 2
      vertex -14.575 2.01733 2
      vertex -14.7613 1.52652 2
    endloop
  endfacet
  facet normal 0 0 1
    outer loop
      vertex -6.01804 -3.0239 2
      vertex -6.30448 -1.53073 2
      vertex -6.36968 -3.43813 2
    endloop
  endfacet
  facet normal 0 0 1
    outer loop
      vertex -6.30448 -1.53073 2
      vertex -7.17157 -2.82843 2
      vertex -6.36968 -3.43813 2
    endloop
  endfacet
  facet normal 0 0 1
    outer loop
      vertex -6.36968 -3.43813 2
      vertex -7.17157 -2.82843 2
      vertex -6.76418 -3.81176 2
    endloop
  endfacet
  facet normal 0 0 1
    outer loop
      vertex -8.67135 -4.82024 2
      vertex -8.46927 -3.69552 2
      vertex -9.20225 -4.93595 2
    endloop
  endfacet
  facet normal 0 0 1
    outer loop
      vertex -8.46927 -3.69552 2
      vertex -10 -4 2
      vertex -9.20225 -4.93595 2
    endloop
  endfacet
  facet normal 0 0 1
    outer loop
      vertex -9.20225 -4.93595 2
      vertex -10 -4 2
      vertex -9.74256 -4.99337 2
    endloop
  endfacet
  facet normal 0 0 1
    outer loop
      vertex -11.8703 -4.63702 2
      vertex -11.3561 -4.81259 2
      vertex -11.5307 -3.69552 2
    endloop
  endfacet
  facet normal 0 0 1
    outer loop
      vertex -11.3561 -4.81259 2
      vertex -10.8259 -4.93132 2
      vertex -11.5307 -3.69552 2
    endloop
  endfacet
  facet normal 0 0 1
    outer loop
      vertex -11.5307 -3.69552 2
      vertex -10.8259 -4.93132 2
      vertex -10 -4 2
    endloop
  endfacet
  facet normal 0 0 1
    outer loop
      vertex -10.8259 -4.93132 2
      vertex -10.2859 -4.99182 2
      vertex -10 -4 2
    endloop
  endfacet
  facet normal 0 0 1
    outer loop
      vertex -10 -4 2
      vertex -10.2859 -4.99182 2
      vertex -9.74256 -4.99337 2
    endloop
  endfacet
  facet normal 0 0 1
    outer loop
      vertex -14.9749 -0.5 2
      vertex -14.8913 -1.03688 2
      vertex -13.9005 -0.5 2
    endloop
  endfacet
  facet normal 0 0 1
    outer loop
      vertex -14.8913 -1.03688 2
      vertex -14.7499 -1.56151 2
      vertex -13.9005 -0.5 2
    endloop
  endfacet
  facet normal 0 0 1
    outer loop
      vertex -13.9005 -0.5 2
      vertex -14.7499 -1.56151 2
      vertex -13.6955 -1.53073 2
    endloop
  endfacet
  facet normal 0 0 1
    outer loop
      vertex -11.5497 4.75377 2
      vertex -12.0396 4.56508 2
      vertex -11.5307 3.69552 2
    endloop
  endfacet
  facet normal 0 0 1
    outer loop
      vertex -12.0396 4.56508 2
      vertex -12.507 4.32606 2
      vertex -11.5307 3.69552 2
    endloop
  endfacet
  facet normal 0 0 1
    outer loop
      vertex -11.5307 3.69552 2
      vertex -12.507 4.32606 2
      vertex -12.8284 2.82843 2
    endloop
  endfacet
  facet normal 0 0 1
    outer loop
      vertex -12.507 4.32606 2
      vertex -12.9468 4.03934 2
      vertex -12.8284 2.82843 2
    endloop
  endfacet
  facet normal 0 0 1
    outer loop
      vertex -12.8284 2.82843 2
      vertex -12.9468 4.03934 2
      vertex -13.3541 3.7081 2
    endloop
  endfacet
  facet normal 0 0 1
    outer loop
      vertex -6.50521e-16 2.1684e-16 2
      vertex 1.67183 0.264409 2
      vertex 5.02426 5.87246 2
    endloop
  endfacet
  facet normal 0 0 1
    outer loop
      vertex 1.67183 0.264409 2
      vertex 4.65845 0.490572 2
      vertex 5.02426 5.87246 2
    endloop
  endfacet
  facet normal 0 0 1
    outer loop
      vertex 5.02426 5.87246 2
      vertex 4.65845 0.490572 2
      vertex 7.88162 5.48313 2
    endloop
  endfacet
  facet normal 0 0 1
    outer loop
      vertex 4.65845 0.490572 2
      vertex 10 0.477502 2
      vertex 7.88162 5.48313 2
    endloop
  endfacet
  facet normal 0 0 1
    outer loop
      vertex 7.88162 5.48313 2
      vertex 10 0.477502 2
      vertex 10 5 2
    endloop
  endfacet
  facet normal 0 0 1
    outer loop
      vertex -8.67135 -4.82024 2
      vertex -8.15616 -4.64761 2
      vertex -8.46927 -3.69552 2
    endloop
  endfacet
  facet normal 0 0 1
    outer loop
      vertex -8.15616 -4.64761 2
      vertex -7.66273 -4.42009 2
      vertex -8.46927 -3.69552 2
    endloop
  endfacet
  facet normal 0 0 1
    outer loop
      vertex -8.46927 -3.69552 2
      vertex -7.66273 -4.42009 2
      vertex -7.17157 -2.82843 2
    endloop
  endfacet
  facet normal 0 0 1
    outer loop
      vertex -7.66273 -4.42009 2
      vertex -7.19691 -4.14037 2
      vertex -7.17157 -2.82843 2
    endloop
  endfacet
  facet normal 0 0 1
    outer loop
      vertex -7.17157 -2.82843 2
      vertex -7.19691 -4.14037 2
      vertex -6.76418 -3.81176 2
    endloop
  endfacet
  facet normal 0 0 1
    outer loop
      vertex -2.87587 5.79853 2
      vertex -10 5 2
      vertex -10 4 2
    endloop
  endfacet
  facet normal 0 0 1
    outer loop
      vertex -10 5 2
      vertex -10.5243 4.97244 2
      vertex -10 4 2
    endloop
  endfacet
  facet normal 0 0 1
    outer loop
      vertex -10 4 2
      vertex -10.5243 4.97244 2
      vertex -11.5307 3.69552 2
    endloop
  endfacet
  facet normal 0 0 1
    outer loop
      vertex -10.5243 4.97244 2
      vertex -11.0427 4.89006 2
      vertex -11.5307 3.69552 2
    endloop
  endfacet
  facet normal 0 0 1
    outer loop
      vertex -11.5307 3.69552 2
      vertex -11.0427 4.89006 2
      vertex -11.5497 4.75377 2
    endloop
  endfacet
  facet normal 0 0 1
    outer loop
      vertex 10 5 2
      vertex 10 0.477502 2
      vertex 12.948 4.03046 2
    endloop
  endfacet
  facet normal 0 0 1
    outer loop
      vertex 10 0.477502 2
      vertex 13.6591 0.276371 2
      vertex 12.948 4.03046 2
    endloop
  endfacet
  facet normal 0 0 1
    outer loop
      vertex 12.948 4.03046 2
      vertex 13.6591 0.276371 2
      vertex 16.3109 2.54116 2
    endloop
  endfacet
  facet normal 0 0 1
    outer loop
      vertex -6.01804 -3.0239 2
      vertex -5.84957 -2.88564 2
      vertex -6.30448 -1.53073 2
    endloop
  endfacet
  facet normal 0 0 1
    outer loop
      vertex -5.84957 -2.88564 2
      vertex -4.45165 -1.82974 2
      vertex -6.30448 -1.53073 2
    endloop
  endfacet
  facet normal 0 0 1
    outer loop
      vertex -6.30448 -1.53073 2
      vertex -4.45165 -1.82974 2
      vertex -6 -1.0842e-15 2
    endloop
  endfacet
  facet normal 0 0 1
    outer loop
      vertex -4.45165 -1.82974 2
      vertex -3.53142 -1.26361 2
      vertex -6 -1.0842e-15 2
    endloop
  endfacet
  facet normal 0 0 1
    outer loop
      vertex -6 -1.0842e-15 2
      vertex -3.53142 -1.26361 2
      vertex -2.527 -0.772075 2
    endloop
  endfacet
  facet normal 0 0 1
    outer loop
      vertex -13.6499 -3.41738 2
      vertex -13.2575 -3.79325 2
      vertex -12.8284 -2.82843 2
    endloop
  endfacet
  facet normal 0 0 1
    outer loop
      vertex -13.2575 -3.79325 2
      vertex -12.8267 -4.12432 2
      vertex -12.8284 -2.82843 2
    endloop
  endfacet
  facet normal 0 0 1
    outer loop
      vertex -12.8284 -2.82843 2
      vertex -12.8267 -4.12432 2
      vertex -11.5307 -3.69552 2
    endloop
  endfacet
  facet normal 0 0 1
    outer loop
      vertex -12.8267 -4.12432 2
      vertex -12.3624 -4.40669 2
      vertex -11.5307 -3.69552 2
    endloop
  endfacet
  facet normal 0 0 1
    outer loop
      vertex -11.5307 -3.69552 2
      vertex -12.3624 -4.40669 2
      vertex -11.8703 -4.63702 2
    endloop
  endfacet
  facet normal 0 0 1
    outer loop
      vertex -14.7499 -1.56151 2
      vertex -14.5524 -2.06771 2
      vertex -13.6955 -1.53073 2
    endloop
  endfacet
  facet normal 0 0 1
    outer loop
      vertex -14.5524 -2.06771 2
      vertex -14.3012 -2.54948 2
      vertex -13.6955 -1.53073 2
    endloop
  endfacet
  facet normal 0 0 1
    outer loop
      vertex -13.6955 -1.53073 2
      vertex -14.3012 -2.54948 2
      vertex -12.8284 -2.82843 2
    endloop
  endfacet
  facet normal 0 0 1
    outer loop
      vertex -14.3012 -2.54948 2
      vertex -13.9991 -3.00115 2
      vertex -12.8284 -2.82843 2
    endloop
  endfacet
  facet normal 0 0 1
    outer loop
      vertex -12.8284 -2.82843 2
      vertex -13.9991 -3.00115 2
      vertex -13.6499 -3.41738 2
    endloop
  endfacet
  facet normal 0 0 1
    outer loop
      vertex -10 4 2
      vertex -8.46927 3.69552 2
      vertex -2.87587 5.79853 2
    endloop
  endfacet
  facet normal 0 0 1
    outer loop
      vertex -8.46927 3.69552 2
      vertex -7.17157 2.82843 2
      vertex -2.87587 5.79853 2
    endloop
  endfacet
  facet normal 0 0 1
    outer loop
      vertex -2.87587 5.79853 2
      vertex -7.17157 2.82843 2
      vertex 1.68497 6.01162 2
    endloop
  endfacet
  facet normal 0 0 1
    outer loop
      vertex -7.17157 2.82843 2
      vertex -6.30448 1.53073 2
      vertex 1.68497 6.01162 2
    endloop
  endfacet
  facet normal 0 0 1
    outer loop
      vertex 1.68497 6.01162 2
      vertex -6.30448 1.53073 2
      vertex 5.02426 5.87246 2
    endloop
  endfacet
  facet normal 0 0 1
    outer loop
      vertex -6.30448 1.53073 2
      vertex -6 -1.0842e-15 2
      vertex 5.02426 5.87246 2
    endloop
  endfacet
  facet normal 0 0 1
    outer loop
      vertex 5.02426 5.87246 2
      vertex -6 -1.0842e-15 2
      vertex -6.50521e-16 2.1684e-16 2
    endloop
  endfacet
  facet normal 0 0 1
    outer loop
      vertex -6 -1.0842e-15 2
      vertex -1.44327 -0.370837 2
      vertex -6.50521e-16 2.1684e-16 2
    endloop
  endfacet
  facet normal 0 0 1
    outer loop
      vertex 13.6591 0.276371 2
      vertex 16.809 9.08789e-13 2
      vertex 16.3109 2.54116 2
    endloop
  endfacet
  facet normal 0 0 1
    outer loop
      vertex 16.809 9.08789e-13 2
      vertex 17.1811 -0.0394793 2
      vertex 16.3109 2.54116 2
    endloop
  endfacet
  facet normal 0 0 1
    outer loop
      vertex 16.3109 2.54116 2
      vertex 17.1811 -0.0394793 2
      vertex 18.1436 1.52934 2
    endloop
  endfacet
  facet normal 0 0 1
    outer loop
      vertex 17.1811 -0.0394793 2
      vertex 19.0676 0.924885 2
      vertex 18.1436 1.52934 2
    endloop
  endfacet
  facet normal 0 0 1
    outer loop
      vertex 19.8566 0.252125 2
      vertex 19.752 0.365499 2
      vertex 19.7198 -0.215438 2
    endloop
  endfacet
  facet normal 0 0 1
    outer loop
      vertex 19.0676 0.924885 2
      vertex 17.1811 -0.0394793 2
      vertex 19.5387 0.561145 2
    endloop
  endfacet
  facet normal 0 0 1
    outer loop
      vertex 17.1811 -0.0394793 2
      vertex 19.1952 -0.229884 2
      vertex 19.5387 0.561145 2
    endloop
  endfacet
  facet normal 0 0 1
    outer loop
      vertex 19.5387 0.561145 2
      vertex 19.1952 -0.229884 2
      vertex 19.752 0.365499 2
    endloop
  endfacet
  facet normal 0 0 1
    outer loop
      vertex 19.1952 -0.229884 2
      vertex 19.5575 -0.230677 2
      vertex 19.752 0.365499 2
    endloop
  endfacet
  facet normal 0 0 1
    outer loop
      vertex 19.752 0.365499 2
      vertex 19.5575 -0.230677 2
      vertex 19.7198 -0.215438 2
    endloop
  endfacet
  facet normal 0 0 1
    outer loop
      vertex 19.8964 -0.167793 2
      vertex 20 2.49366e-15 2
      vertex 19.7198 -0.215438 2
    endloop
  endfacet
  facet normal 0 0 1
    outer loop
      vertex 20 2.49366e-15 2
      vertex 19.9887 0.043858 2
      vertex 19.7198 -0.215438 2
    endloop
  endfacet
  facet normal 0 0 1
    outer loop
      vertex 19.7198 -0.215438 2
      vertex 19.9887 0.043858 2
      vertex 19.8566 0.252125 2
    endloop
  endfacet
  facet normal 0.980785 0.19509 0
    outer loop
      vertex -13.9005 -0.5 2
      vertex -13.6955 -1.53073 2
      vertex -13.9005 -0.5 0
    endloop
  endfacet
  facet normal 0.980785 0.19509 0
    outer loop
      vertex -13.6955 -1.53073 2
      vertex -13.6955 -1.53073 0
      vertex -13.9005 -0.5 0
    endloop
  endfacet
  facet normal 0.83147 0.55557 0
    outer loop
      vertex -13.6955 -1.53073 2
      vertex -12.8284 -2.82843 2
      vertex -13.6955 -1.53073 0
    endloop
  endfacet
  facet normal 0.83147 0.55557 0
    outer loop
      vertex -12.8284 -2.82843 2
      vertex -12.8284 -2.82843 0
      vertex -13.6955 -1.53073 0
    endloop
  endfacet
  facet normal 0.55557 0.83147 0
    outer loop
      vertex -12.8284 -2.82843 2
      vertex -11.5307 -3.69552 2
      vertex -12.8284 -2.82843 0
    endloop
  endfacet
  facet normal 0.55557 0.83147 0
    outer loop
      vertex -11.5307 -3.69552 2
      vertex -11.5307 -3.69552 0
      vertex -12.8284 -2.82843 0
    endloop
  endfacet
  facet normal 0.19509 0.980785 0
    outer loop
      vertex -11.5307 -3.69552 2
      vertex -10 -4 2
      vertex -11.5307 -3.69552 0
    endloop
  endfacet
  facet normal 0.19509 0.980785 0
    outer loop
      vertex -10 -4 2
      vertex -10 -4 0
      vertex -11.5307 -3.69552 0
    endloop
  endfacet
  facet normal 0 -1 0
    outer loop
      vertex -13.9005 0.5 2
      vertex -14.9749 0.5 2
      vertex -13.9005 0.5 0
    endloop
  endfacet
  facet normal 0 -1 0
    outer loop
      vertex -14.9749 0.5 2
      vertex -14.9749 0.5 0
      vertex -13.9005 0.5 0
    endloop
  endfacet
  facet normal -0.0524981 0.998621 0
    outer loop
      vertex -10 5 2
      vertex -10 5 0
      vertex -10.5243 4.97244 0
    endloop
  endfacet
  facet normal -0.0524981 0.998621 0
    outer loop
      vertex -10 5 2
      vertex -10.5243 4.97244 0
      vertex -10.5243 4.97244 2
    endloop
  endfacet
  facet normal -0.156916 0.987612 0
    outer loop
      vertex -10.5243 4.97244 0
      vertex -11.0427 4.89006 0
      vertex -10.5243 4.97244 2
    endloop
  endfacet
  facet normal -0.156916 0.987612 0
    outer loop
      vertex -10.5243 4.97244 2
      vertex -11.0427 4.89006 0
      vertex -11.0427 4.89006 2
    endloop
  endfacet
  facet normal -0.259604 0.965715 0
    outer loop
      vertex -11.0427 4.89006 0
      vertex -11.5497 4.75377 0
      vertex -11.0427 4.89006 2
    endloop
  endfacet
  facet normal -0.259604 0.965715 0
    outer loop
      vertex -11.0427 4.89006 2
      vertex -11.5497 4.75377 0
      vertex -11.5497 4.75377 2
    endloop
  endfacet
  facet normal -0.359431 0.933172 0
    outer loop
      vertex -11.5497 4.75377 0
      vertex -12.0396 4.56508 0
      vertex -11.5497 4.75377 2
    endloop
  endfacet
  facet normal -0.359431 0.933172 0
    outer loop
      vertex -11.5497 4.75377 2
      vertex -12.0396 4.56508 0
      vertex -12.0396 4.56508 2
    endloop
  endfacet
  facet normal -0.455294 0.890341 0
    outer loop
      vertex -12.0396 4.56508 0
      vertex -12.507 4.32606 0
      vertex -12.0396 4.56508 2
    endloop
  endfacet
  facet normal -0.455294 0.890341 0
    outer loop
      vertex -12.0396 4.56508 2
      vertex -12.507 4.32606 0
      vertex -12.507 4.32606 2
    endloop
  endfacet
  facet normal -0.546138 0.837695 0
    outer loop
      vertex -12.507 4.32606 0
      vertex -12.9468 4.03934 0
      vertex -12.507 4.32606 2
    endloop
  endfacet
  facet normal -0.546138 0.837695 0
    outer loop
      vertex -12.507 4.32606 2
      vertex -12.9468 4.03934 0
      vertex -12.9468 4.03934 2
    endloop
  endfacet
  facet normal -0.630961 0.775814 0
    outer loop
      vertex -12.9468 4.03934 0
      vertex -13.3541 3.7081 0
      vertex -12.9468 4.03934 2
    endloop
  endfacet
  facet normal -0.630961 0.775814 0
    outer loop
      vertex -12.9468 4.03934 2
      vertex -13.3541 3.7081 0
      vertex -13.3541 3.7081 2
    endloop
  endfacet
  facet normal -0.708829 0.70538 0
    outer loop
      vertex -13.3541 3.7081 0
      vertex -13.7244 3.33598 0
      vertex -13.3541 3.7081 2
    endloop
  endfacet
  facet normal -0.708829 0.70538 0
    outer loop
      vertex -13.3541 3.7081 2
      vertex -13.7244 3.33598 0
      vertex -13.7244 3.33598 2
    endloop
  endfacet
  facet normal -0.778882 0.627171 0
    outer loop
      vertex -13.7244 3.33598 0
      vertex -14.0537 2.92708 0
      vertex -13.7244 3.33598 2
    endloop
  endfacet
  facet normal -0.778882 0.627171 0
    outer loop
      vertex -13.7244 3.33598 2
      vertex -14.0537 2.92708 0
      vertex -14.0537 2.92708 2
    endloop
  endfacet
  facet normal -0.840349 0.542045 0
    outer loop
      vertex -14.0537 2.92708 0
      vertex -14.3382 2.48591 0
      vertex -14.0537 2.92708 2
    endloop
  endfacet
  facet normal -0.840349 0.542045 0
    outer loop
      vertex -14.0537 2.92708 2
      vertex -14.3382 2.48591 0
      vertex -14.3382 2.48591 2
    endloop
  endfacet
  facet normal -0.892552 0.450945 0
    outer loop
      vertex -14.3382 2.48591 0
      vertex -14.575 2.01733 0
      vertex -14.3382 2.48591 2
    endloop
  endfacet
  facet normal -0.892552 0.450945 0
    outer loop
      vertex -14.3382 2.48591 2
      vertex -14.575 2.01733 0
      vertex -14.575 2.01733 2
    endloop
  endfacet
  facet normal -0.934914 0.354875 0
    outer loop
      vertex -14.575 2.01733 0
      vertex -14.7613 1.52652 0
      vertex -14.575 2.01733 2
    endloop
  endfacet
  facet normal -0.934914 0.354875 0
    outer loop
      vertex -14.575 2.01733 2
      vertex -14.7613 1.52652 0
      vertex -14.7613 1.52652 2
    endloop
  endfacet
  facet normal -0.96697 0.254891 0
    outer loop
      vertex -14.7613 1.52652 0
      vertex -14.8951 1.01888 0
      vertex -14.7613 1.52652 2
    endloop
  endfacet
  facet normal -0.96697 0.254891 0
    outer loop
      vertex -14.7613 1.52652 2
      vertex -14.8951 1.01888 0
      vertex -14.8951 1.01888 2
    endloop
  endfacet
  facet normal -0.988366 0.152096 0
    outer loop
      vertex -14.8951 1.01888 0
      vertex -14.9749 0.5 0
      vertex -14.8951 1.01888 2
    endloop
  endfacet
  facet normal -0.988366 0.152096 0
    outer loop
      vertex -14.8951 1.01888 2
      vertex -14.9749 0.5 0
      vertex -14.9749 0.5 2
    endloop
  endfacet
  facet normal 0.968391 0.249438 0
    outer loop
      vertex 20 2.49366e-15 2
      vertex 20 2.49366e-15 0
      vertex 19.9887 0.043858 0
    endloop
  endfacet
  facet normal 0.968391 0.249438 0
    outer loop
      vertex 20 2.49366e-15 2
      vertex 19.9887 0.043858 0
      vertex 19.9887 0.043858 2
    endloop
  endfacet
  facet normal 0.844535 0.535501 0
    outer loop
      vertex 19.9887 0.043858 0
      vertex 19.8566 0.252125 0
      vertex 19.9887 0.043858 2
    endloop
  endfacet
  facet normal 0.844535 0.535501 0
    outer loop
      vertex 19.9887 0.043858 2
      vertex 19.8566 0.252125 0
      vertex 19.8566 0.252125 2
    endloop
  endfacet
  facet normal 0.734869 0.678209 0
    outer loop
      vertex 19.8566 0.252125 0
      vertex 19.752 0.365499 0
      vertex 19.8566 0.252125 2
    endloop
  endfacet
  facet normal 0.734869 0.678209 0
    outer loop
      vertex 19.8566 0.252125 2
      vertex 19.752 0.365499 0
      vertex 19.752 0.365499 2
    endloop
  endfacet
  facet normal 0.675855 0.737035 0
    outer loop
      vertex 19.752 0.365499 0
      vertex 19.5387 0.561145 0
      vertex 19.752 0.365499 2
    endloop
  endfacet
  facet normal 0.675855 0.737035 0
    outer loop
      vertex 19.752 0.365499 2
      vertex 19.5387 0.561145 0
      vertex 19.5387 0.561145 2
    endloop
  endfacet
  facet normal 0.611158 0.791509 0
    outer loop
      vertex 19.5387 0.561145 0
      vertex 19.0676 0.924885 0
      vertex 19.5387 0.561145 2
    endloop
  endfacet
  facet normal 0.611158 0.791509 0
    outer loop
      vertex 19.5387 0.561145 2
      vertex 19.0676 0.924885 0
      vertex 19.0676 0.924885 2
    endloop
  endfacet
  facet normal 0.547454 0.836836 0
    outer loop
      vertex 19.0676 0.924885 0
      vertex 18.1436 1.52934 0
      vertex 19.0676 0.924885 2
    endloop
  endfacet
  facet normal 0.547454 0.836836 0
    outer loop
      vertex 19.0676 0.924885 2
      vertex 18.1436 1.52934 0
      vertex 18.1436 1.52934 2
    endloop
  endfacet
  facet normal 0.483313 0.875448 0
    outer loop
      vertex 18.1436 1.52934 0
      vertex 16.3109 2.54116 0
      vertex 18.1436 1.52934 2
    endloop
  endfacet
  facet normal 0.483313 0.875448 0
    outer loop
      vertex 18.1436 1.52934 2
      vertex 16.3109 2.54116 0
      vertex 16.3109 2.54116 2
    endloop
  endfacet
  facet normal 0.404932 0.914347 0
    outer loop
      vertex 16.3109 2.54116 0
      vertex 12.948 4.03046 0
      vertex 16.3109 2.54116 2
    endloop
  endfacet
  facet normal 0.404932 0.914347 0
    outer loop
      vertex 16.3109 2.54116 2
      vertex 12.948 4.03046 0
      vertex 12.948 4.03046 2
    endloop
  endfacet
  facet normal 0.312421 0.949944 0
    outer loop
      vertex 12.948 4.03046 0
      vertex 10 5 0
      vertex 12.948 4.03046 2
    endloop
  endfacet
  facet normal 0.312421 0.949944 0
    outer loop
      vertex 12.948 4.03046 2
      vertex 10 5 0
      vertex 10 5 2
    endloop
  endfacet
  facet normal 0.222355 0.974966 0
    outer loop
      vertex 10 5 2
      vertex 10 5 0
      vertex 7.88162 5.48313 0
    endloop
  endfacet
  facet normal 0.222355 0.974966 0
    outer loop
      vertex 10 5 2
      vertex 7.88162 5.48313 0
      vertex 7.88162 5.48313 2
    endloop
  endfacet
  facet normal 0.135009 0.990844 0
    outer loop
      vertex 7.88162 5.48313 0
      vertex 5.02426 5.87246 0
      vertex 7.88162 5.48313 2
    endloop
  endfacet
  facet normal 0.135009 0.990844 0
    outer loop
      vertex 7.88162 5.48313 2
      vertex 5.02426 5.87246 0
      vertex 5.02426 5.87246 2
    endloop
  endfacet
  facet normal 0.0416374 0.999133 0
    outer loop
      vertex 5.02426 5.87246 0
      vertex 1.68497 6.01162 0
      vertex 5.02426 5.87246 2
    endloop
  endfacet
  facet normal 0.0416374 0.999133 0
    outer loop
      vertex 5.02426 5.87246 2
      vertex 1.68497 6.01162 0
      vertex 1.68497 6.01162 2
    endloop
  endfacet
  facet normal -0.0466703 0.99891 0
    outer loop
      vertex 1.68497 6.01162 0
      vertex -2.87587 5.79853 0
      vertex 1.68497 6.01162 2
    endloop
  endfacet
  facet normal -0.0466703 0.99891 0
    outer loop
      vertex 1.68497 6.01162 2
      vertex -2.87587 5.79853 0
      vertex -2.87587 5.79853 2
    endloop
  endfacet
  facet normal -0.111391 0.993777 0
    outer loop
      vertex -2.87587 5.79853 0
      vertex -10 5 0
      vertex -2.87587 5.79853 2
    endloop
  endfacet
  facet normal -0.111391 0.993777 0
    outer loop
      vertex -2.87587 5.79853 2
      vertex -10 5 0
      vertex -10 5 2
    endloop
  endfacet
  facet normal -0.105499 -0.994419 0
    outer loop
      vertex 16.809 9.08789e-13 2
      vertex 16.809 9.08789e-13 0
      vertex 17.1811 -0.0394793 0
    endloop
  endfacet
  facet normal -0.105499 -0.994419 0
    outer loop
      vertex 16.809 9.08789e-13 2
      vertex 17.1811 -0.0394793 0
      vertex 17.1811 -0.0394793 2
    endloop
  endfacet
  facet normal -0.0941161 -0.995561 0
    outer loop
      vertex 17.1811 -0.0394793 0
      vertex 19.1952 -0.229884 0
      vertex 17.1811 -0.0394793 2
    endloop
  endfacet
  facet normal -0.0941161 -0.995561 0
    outer loop
      vertex 17.1811 -0.0394793 2
      vertex 19.1952 -0.229884 0
      vertex 19.1952 -0.229884 2
    endloop
  endfacet
  facet normal -0.00218883 -0.999998 0
    outer loop
      vertex 19.1952 -0.229884 0
      vertex 19.5575 -0.230677 0
      vertex 19.1952 -0.229884 2
    endloop
  endfacet
  facet normal -0.00218883 -0.999998 0
    outer loop
      vertex 19.1952 -0.229884 2
      vertex 19.5575 -0.230677 0
      vertex 19.5575 -0.230677 2
    endloop
  endfacet
  facet normal 0.0935107 -0.995618 0
    outer loop
      vertex 19.5575 -0.230677 0
      vertex 19.7198 -0.215438 0
      vertex 19.5575 -0.230677 2
    endloop
  endfacet
  facet normal 0.0935107 -0.995618 0
    outer loop
      vertex 19.5575 -0.230677 2
      vertex 19.7198 -0.215438 0
      vertex 19.7198 -0.215438 2
    endloop
  endfacet
  facet normal 0.260448 -0.965488 0
    outer loop
      vertex 19.7198 -0.215438 0
      vertex 19.8964 -0.167793 0
      vertex 19.7198 -0.215438 2
    endloop
  endfacet
  facet normal 0.260448 -0.965488 0
    outer loop
      vertex 19.7198 -0.215438 2
      vertex 19.8964 -0.167793 0
      vertex 19.8964 -0.167793 2
    endloop
  endfacet
  facet normal 0.850927 -0.525284 0
    outer loop
      vertex 19.8964 -0.167793 0
      vertex 20 2.49366e-15 0
      vertex 19.8964 -0.167793 2
    endloop
  endfacet
  facet normal 0.850927 -0.525284 0
    outer loop
      vertex 19.8964 -0.167793 2
      vertex 20 2.49366e-15 0
      vertex 20 2.49366e-15 2
    endloop
  endfacet
  facet normal 0 1 0
    outer loop
      vertex -14.9749 -0.5 2
      vertex -13.9005 -0.5 2
      vertex -14.9749 -0.5 0
    endloop
  endfacet
  facet normal 0 1 0
    outer loop
      vertex -13.9005 -0.5 2
      vertex -13.9005 -0.5 0
      vertex -14.9749 -0.5 0
    endloop
  endfacet
  facet normal 0.156213 -0.987723 0
    outer loop
      vertex -6.50521e-16 2.1684e-16 2
      vertex -6.50521e-16 2.1684e-16 0
      vertex 1.67183 0.264409 0
    endloop
  endfacet
  facet normal 0.156213 -0.987723 0
    outer loop
      vertex -6.50521e-16 2.1684e-16 2
      vertex 1.67183 0.264409 0
      vertex 1.67183 0.264409 2
    endloop
  endfacet
  facet normal 0.0755093 -0.997145 0
    outer loop
      vertex 1.67183 0.264409 0
      vertex 4.65845 0.490572 0
      vertex 1.67183 0.264409 2
    endloop
  endfacet
  facet normal 0.0755093 -0.997145 0
    outer loop
      vertex 1.67183 0.264409 2
      vertex 4.65845 0.490572 0
      vertex 4.65845 0.490572 2
    endloop
  endfacet
  facet normal -0.00244679 -0.999997 0
    outer loop
      vertex 4.65845 0.490572 0
      vertex 10 0.477502 0
      vertex 4.65845 0.490572 2
    endloop
  endfacet
  facet normal -0.00244679 -0.999997 0
    outer loop
      vertex 4.65845 0.490572 2
      vertex 10 0.477502 0
      vertex 10 0.477502 2
    endloop
  endfacet
  facet normal -0.988084 -0.153914 0
    outer loop
      vertex -14.9749 -0.5 2
      vertex -14.9749 -0.5 0
      vertex -14.8913 -1.03688 0
    endloop
  endfacet
  facet normal -0.988084 -0.153914 0
    outer loop
      vertex -14.9749 -0.5 2
      vertex -14.8913 -1.03688 0
      vertex -14.8913 -1.03688 2
    endloop
  endfacet
  facet normal -0.965548 -0.260223 0
    outer loop
      vertex -14.8913 -1.03688 0
      vertex -14.7499 -1.56151 0
      vertex -14.8913 -1.03688 2
    endloop
  endfacet
  facet normal -0.965548 -0.260223 0
    outer loop
      vertex -14.8913 -1.03688 2
      vertex -14.7499 -1.56151 0
      vertex -14.7499 -1.56151 2
    endloop
  endfacet
  facet normal -0.93161 -0.363459 0
    outer loop
      vertex -14.7499 -1.56151 0
      vertex -14.5524 -2.06771 0
      vertex -14.7499 -1.56151 2
    endloop
  endfacet
  facet normal -0.93161 -0.363459 0
    outer loop
      vertex -14.7499 -1.56151 2
      vertex -14.5524 -2.06771 0
      vertex -14.5524 -2.06771 2
    endloop
  endfacet
  facet normal -0.88667 -0.462403 0
    outer loop
      vertex -14.5524 -2.06771 0
      vertex -14.3012 -2.54948 0
      vertex -14.5524 -2.06771 2
    endloop
  endfacet
  facet normal -0.88667 -0.462403 0
    outer loop
      vertex -14.5524 -2.06771 2
      vertex -14.3012 -2.54948 0
      vertex -14.3012 -2.54948 2
    endloop
  endfacet
  facet normal -0.83126 -0.555884 0
    outer loop
      vertex -14.3012 -2.54948 0
      vertex -13.9991 -3.00115 0
      vertex -14.3012 -2.54948 2
    endloop
  endfacet
  facet normal -0.83126 -0.555884 0
    outer loop
      vertex -14.3012 -2.54948 2
      vertex -13.9991 -3.00115 0
      vertex -13.9991 -3.00115 2
    endloop
  endfacet
  facet normal -0.766032 -0.642802 0
    outer loop
      vertex -13.9991 -3.00115 0
      vertex -13.6499 -3.41738 0
      vertex -13.9991 -3.00115 2
    endloop
  endfacet
  facet normal -0.766032 -0.642802 0
    outer loop
      vertex -13.9991 -3.00115 2
      vertex -13.6499 -3.41738 0
      vertex -13.6499 -3.41738 2
    endloop
  endfacet
  facet normal -0.691758 -0.722129 0
    outer loop
      vertex -13.6499 -3.41738 0
      vertex -13.2575 -3.79325 0
      vertex -13.6499 -3.41738 2
    endloop
  endfacet
  facet normal -0.691758 -0.722129 0
    outer loop
      vertex -13.6499 -3.41738 2
      vertex -13.2575 -3.79325 0
      vertex -13.2575 -3.79325 2
    endloop
  endfacet
  facet normal -0.609316 -0.792928 0
    outer loop
      vertex -13.2575 -3.79325 0
      vertex -12.8267 -4.12432 0
      vertex -13.2575 -3.79325 2
    endloop
  endfacet
  facet normal -0.609316 -0.792928 0
    outer loop
      vertex -13.2575 -3.79325 2
      vertex -12.8267 -4.12432 0
      vertex -12.8267 -4.12432 2
    endloop
  endfacet
  facet normal -0.519676 -0.854363 0
    outer loop
      vertex -12.8267 -4.12432 0
      vertex -12.3624 -4.40669 0
      vertex -12.8267 -4.12432 2
    endloop
  endfacet
  facet normal -0.519676 -0.854363 0
    outer loop
      vertex -12.8267 -4.12432 2
      vertex -12.3624 -4.40669 0
      vertex -12.3624 -4.40669 2
    endloop
  endfacet
  facet normal -0.423901 -0.905709 0
    outer loop
      vertex -12.3624 -4.40669 0
      vertex -11.8703 -4.63702 0
      vertex -12.3624 -4.40669 2
    endloop
  endfacet
  facet normal -0.423901 -0.905709 0
    outer loop
      vertex -12.3624 -4.40669 2
      vertex -11.8703 -4.63702 0
      vertex -11.8703 -4.63702 2
    endloop
  endfacet
  facet normal -0.323119 -0.946358 0
    outer loop
      vertex -11.8703 -4.63702 0
      vertex -11.3561 -4.81259 0
      vertex -11.8703 -4.63702 2
    endloop
  endfacet
  facet normal -0.323119 -0.946358 0
    outer loop
      vertex -11.8703 -4.63702 2
      vertex -11.3561 -4.81259 0
      vertex -11.3561 -4.81259 2
    endloop
  endfacet
  facet normal -0.218522 -0.975832 0
    outer loop
      vertex -11.3561 -4.81259 0
      vertex -10.8259 -4.93132 0
      vertex -11.3561 -4.81259 2
    endloop
  endfacet
  facet normal -0.218522 -0.975832 0
    outer loop
      vertex -11.3561 -4.81259 2
      vertex -10.8259 -4.93132 0
      vertex -10.8259 -4.93132 2
    endloop
  endfacet
  facet normal -0.111344 -0.993782 0
    outer loop
      vertex -10.8259 -4.93132 0
      vertex -10.2859 -4.99182 0
      vertex -10.8259 -4.93132 2
    endloop
  endfacet
  facet normal -0.111344 -0.993782 0
    outer loop
      vertex -10.8259 -4.93132 2
      vertex -10.2859 -4.99182 0
      vertex -10.2859 -4.99182 2
    endloop
  endfacet
  facet normal -0.00285043 -0.999996 0
    outer loop
      vertex -10.2859 -4.99182 0
      vertex -9.74256 -4.99337 0
      vertex -10.2859 -4.99182 2
    endloop
  endfacet
  facet normal -0.00285043 -0.999996 0
    outer loop
      vertex -10.2859 -4.99182 2
      vertex -9.74256 -4.99337 0
      vertex -9.74256 -4.99337 2
    endloop
  endfacet
  facet normal 0.105676 -0.994401 0
    outer loop
      vertex -9.74256 -4.99337 0
      vertex -9.20225 -4.93595 0
      vertex -9.74256 -4.99337 2
    endloop
  endfacet
  facet normal 0.105676 -0.994401 0
    outer loop
      vertex -9.74256 -4.99337 2
      vertex -9.20225 -4.93595 0
      vertex -9.20225 -4.93595 2
    endloop
  endfacet
  facet normal 0.212955 -0.977062 0
    outer loop
      vertex -9.20225 -4.93595 0
      vertex -8.67135 -4.82024 0
      vertex -9.20225 -4.93595 2
    endloop
  endfacet
  facet normal 0.212955 -0.977062 0
    outer loop
      vertex -9.20225 -4.93595 2
      vertex -8.67135 -4.82024 0
      vertex -8.67135 -4.82024 2
    endloop
  endfacet
  facet normal 0.317719 -0.948185 0
    outer loop
      vertex -8.67135 -4.82024 0
      vertex -8.15616 -4.64761 0
      vertex -8.67135 -4.82024 2
    endloop
  endfacet
  facet normal 0.317719 -0.948185 0
    outer loop
      vertex -8.67135 -4.82024 2
      vertex -8.15616 -4.64761 0
      vertex -8.15616 -4.64761 2
    endloop
  endfacet
  facet normal 0.418729 -0.908111 0
    outer loop
      vertex -8.15616 -4.64761 0
      vertex -7.66273 -4.42009 0
      vertex -8.15616 -4.64761 2
    endloop
  endfacet
  facet normal 0.418729 -0.908111 0
    outer loop
      vertex -8.15616 -4.64761 2
      vertex -7.66273 -4.42009 0
      vertex -7.66273 -4.42009 2
    endloop
  endfacet
  facet normal 0.514797 -0.857312 0
    outer loop
      vertex -7.66273 -4.42009 0
      vertex -7.19691 -4.14037 0
      vertex -7.66273 -4.42009 2
    endloop
  endfacet
  facet normal 0.514797 -0.857312 0
    outer loop
      vertex -7.66273 -4.42009 2
      vertex -7.19691 -4.14037 0
      vertex -7.19691 -4.14037 2
    endloop
  endfacet
  facet normal 0.604785 -0.796389 0
    outer loop
      vertex -7.19691 -4.14037 0
      vertex -6.76418 -3.81176 0
      vertex -7.19691 -4.14037 2
    endloop
  endfacet
  facet normal 0.604785 -0.796389 0
    outer loop
      vertex -7.19691 -4.14037 2
      vertex -6.76418 -3.81176 0
      vertex -6.76418 -3.81176 2
    endloop
  endfacet
  facet normal 0.687629 -0.726062 0
    outer loop
      vertex -6.76418 -3.81176 0
      vertex -6.36968 -3.43813 0
      vertex -6.76418 -3.81176 2
    endloop
  endfacet
  facet normal 0.687629 -0.726062 0
    outer loop
      vertex -6.76418 -3.81176 2
      vertex -6.36968 -3.43813 0
      vertex -6.36968 -3.43813 2
    endloop
  endfacet
  facet normal 0.762355 -0.647159 0
    outer loop
      vertex -6.36968 -3.43813 0
      vertex -6.01804 -3.0239 0
      vertex -6.36968 -3.43813 2
    endloop
  endfacet
  facet normal 0.762355 -0.647159 0
    outer loop
      vertex -6.36968 -3.43813 2
      vertex -6.01804 -3.0239 0
      vertex -6.01804 -3.0239 2
    endloop
  endfacet
  facet normal -0.0548846 -0.998493 0
    outer loop
      vertex 10 0.477502 2
      vertex 10 0.477502 0
      vertex 13.6591 0.276371 0
    endloop
  endfacet
  facet normal -0.0548846 -0.998493 0
    outer loop
      vertex 10 0.477502 2
      vertex 13.6591 0.276371 0
      vertex 13.6591 0.276371 2
    endloop
  endfacet
  facet normal -0.0874038 -0.996173 0
    outer loop
      vertex 13.6591 0.276371 0
      vertex 16.809 9.08789e-13 0
      vertex 13.6591 0.276371 2
    endloop
  endfacet
  facet normal -0.0874038 -0.996173 0
    outer loop
      vertex 13.6591 0.276371 2
      vertex 16.809 9.08789e-13 0
      vertex 16.809 9.08789e-13 2
    endloop
  endfacet
  facet normal 0.634418 -0.772991 0
    outer loop
      vertex -6.01804 -3.0239 2
      vertex -6.01804 -3.0239 0
      vertex -5.84957 -2.88564 0
    endloop
  endfacet
  facet normal 0.634418 -0.772991 0
    outer loop
      vertex -6.01804 -3.0239 2
      vertex -5.84957 -2.88564 0
      vertex -5.84957 -2.88564 2
    endloop
  endfacet
  facet normal 0.602721 -0.797952 0
    outer loop
      vertex -5.84957 -2.88564 0
      vertex -4.45165 -1.82974 0
      vertex -5.84957 -2.88564 2
    endloop
  endfacet
  facet normal 0.602721 -0.797952 0
    outer loop
      vertex -5.84957 -2.88564 2
      vertex -4.45165 -1.82974 0
      vertex -4.45165 -1.82974 2
    endloop
  endfacet
  facet normal 0.523982 -0.851729 0
    outer loop
      vertex -4.45165 -1.82974 0
      vertex -3.53142 -1.26361 0
      vertex -4.45165 -1.82974 2
    endloop
  endfacet
  facet normal 0.523982 -0.851729 0
    outer loop
      vertex -4.45165 -1.82974 2
      vertex -3.53142 -1.26361 0
      vertex -3.53142 -1.26361 2
    endloop
  endfacet
  facet normal 0.439564 -0.898211 0
    outer loop
      vertex -3.53142 -1.26361 0
      vertex -2.527 -0.772075 0
      vertex -3.53142 -1.26361 2
    endloop
  endfacet
  facet normal 0.439564 -0.898211 0
    outer loop
      vertex -3.53142 -1.26361 2
      vertex -2.527 -0.772075 0
      vertex -2.527 -0.772075 2
    endloop
  endfacet
  facet normal 0.347204 -0.93779 0
    outer loop
      vertex -2.527 -0.772075 0
      vertex -1.44327 -0.370837 0
      vertex -2.527 -0.772075 2
    endloop
  endfacet
  facet normal 0.347204 -0.93779 0
    outer loop
      vertex -2.527 -0.772075 2
      vertex -1.44327 -0.370837 0
      vertex -1.44327 -0.370837 2
    endloop
  endfacet
  facet normal 0.248859 -0.96854 0
    outer loop
      vertex -1.44327 -0.370837 0
      vertex -6.50521e-16 2.1684e-16 0
      vertex -1.44327 -0.370837 2
    endloop
  endfacet
  facet normal 0.248859 -0.96854 0
    outer loop
      vertex -1.44327 -0.370837 2
      vertex -6.50521e-16 2.1684e-16 0
      vertex -6.50521e-16 2.1684e-16 2
    endloop
  endfacet
  facet normal -0.19509 -0.980785 0
    outer loop
      vertex -8.46927 3.69552 2
      vertex -10 4 2
      vertex -8.46927 3.69552 0
    endloop
  endfacet
  facet normal -0.19509 -0.980785 0
    outer loop
      vertex -10 4 2
      vertex -10 4 0
      vertex -8.46927 3.69552 0
    endloop
  endfacet
  facet normal 0.980785 -0.19509 0
    outer loop
      vertex -13.6955 1.53073 2
      vertex -13.9005 0.5 2
      vertex -13.6955 1.53073 0
    endloop
  endfacet
  facet normal 0.980785 -0.19509 0
    outer loop
      vertex -13.9005 0.5 2
      vertex -13.9005 0.5 0
      vertex -13.6955 1.53073 0
    endloop
  endfacet
  facet normal 0.83147 -0.55557 0
    outer loop
      vertex -12.8284 2.82843 2
      vertex -13.6955 1.53073 2
      vertex -12.8284 2.82843 0
    endloop
  endfacet
  facet normal 0.83147 -0.55557 0
    outer loop
      vertex -13.6955 1.53073 2
      vertex -13.6955 1.53073 0
      vertex -12.8284 2.82843 0
    endloop
  endfacet
  facet normal 0.55557 -0.83147 0
    outer loop
      vertex -11.5307 3.69552 2
      vertex -12.8284 2.82843 2
      vertex -11.5307 3.69552 0
    endloop
  endfacet
  facet normal 0.55557 -0.83147 0
    outer loop
      vertex -12.8284 2.82843 2
      vertex -12.8284 2.82843 0
      vertex -11.5307 3.69552 0
    endloop
  endfacet
  facet normal 0.19509 -0.980785 0
    outer loop
      vertex -10 4 2
      vertex -11.5307 3.69552 2
      vertex -10 4 0
    endloop
  endfacet
  facet normal 0.19509 -0.980785 0
    outer loop
      vertex -11.5307 3.69552 2
      vertex -11.5307 3.69552 0
      vertex -10 4 0
    endloop
  endfacet
  facet normal -0.55557 -0.83147 0
    outer loop
      vertex -7.17157 2.82843 2
      vertex -8.46927 3.69552 2
      vertex -7.17157 2.82843 0
    endloop
  endfacet
  facet normal -0.55557 -0.83147 0
    outer loop
      vertex -8.46927 3.69552 2
      vertex -8.46927 3.69552 0
      vertex -7.17157 2.82843 0
    endloop
  endfacet
  facet normal -0.83147 -0.55557 0
    outer loop
      vertex -6.30448 1.53073 2
      vertex -7.17157 2.82843 2
      vertex -6.30448 1.53073 0
    endloop
  endfacet
  facet normal -0.83147 -0.55557 0
    outer loop
      vertex -7.17157 2.82843 2
      vertex -7.17157 2.82843 0
      vertex -6.30448 1.53073 0
    endloop
  endfacet
  facet normal -0.980785 -0.19509 0
    outer loop
      vertex -6 -1.0842e-15 2
      vertex -6.30448 1.53073 2
      vertex -6 -1.0842e-15 0
    endloop
  endfacet
  facet normal -0.980785 -0.19509 0
    outer loop
      vertex -6.30448 1.53073 2
      vertex -6.30448 1.53073 0
      vertex -6 -1.0842e-15 0
    endloop
  endfacet
  facet normal -0.980785 0.19509 0
    outer loop
      vertex -6.30448 -1.53073 2
      vertex -6 -1.0842e-15 2
      vertex -6.30448 -1.53073 0
    endloop
  endfacet
  facet normal -0.980785 0.19509 0
    outer loop
      vertex -6 -1.0842e-15 2
      vertex -6 -1.0842e-15 0
      vertex -6.30448 -1.53073 0
    endloop
  endfacet
  facet normal -0.83147 0.55557 0
    outer loop
      vertex -7.17157 -2.82843 2
      vertex -6.30448 -1.53073 2
      vertex -7.17157 -2.82843 0
    endloop
  endfacet
  facet normal -0.83147 0.55557 0
    outer loop
      vertex -6.30448 -1.53073 2
      vertex -6.30448 -1.53073 0
      vertex -7.17157 -2.82843 0
    endloop
  endfacet
  facet normal -0.55557 0.83147 0
    outer loop
      vertex -8.46927 -3.69552 2
      vertex -7.17157 -2.82843 2
      vertex -8.46927 -3.69552 0
    endloop
  endfacet
  facet normal -0.55557 0.83147 0
    outer loop
      vertex -7.17157 -2.82843 2
      vertex -7.17157 -2.82843 0
      vertex -8.46927 -3.69552 0
    endloop
  endfacet
  facet normal -0.19509 0.980785 0
    outer loop
      vertex -10 -4 2
      vertex -8.46927 -3.69552 2
      vertex -10 -4 0
    endloop
  endfacet
  facet normal -0.19509 0.980785 0
    outer loop
      vertex -8.46927 -3.69552 2
      vertex -8.46927 -3.69552 0
      vertex -10 -4 0
    endloop
  endfacet
endsolid Onshape
