solid Onshape
  facet normal -0.83147 0.55557 0
    outer loop
      vertex 6.48926 1.4542 2
      vertex 6.48926 1.4542 5
      vertex 7.31299 2.68701 2
    endloop
  endfacet
  facet normal -0.83147 0.55557 0
    outer loop
      vertex 6.48926 1.4542 5
      vertex 7.31299 2.68701 5
      vertex 7.31299 2.68701 2
    endloop
  endfacet
  facet normal 0.980785 0.19509 0
    outer loop
      vertex -13.9005 -0.5 2
      vertex -13.6955 -1.53073 2
      vertex -13.9005 -0.5 0
    endloop
  endfacet
  facet normal 0.980785 0.19509 0
    outer loop
      vertex -13.6955 -1.53073 2
      vertex -13.6955 -1.53073 0
      vertex -13.9005 -0.5 0
    endloop
  endfacet
  facet normal 0.55557 -0.83147 0
    outer loop
      vertex -11.5307 3.69552 2
      vertex -12.8284 2.82843 2
      vertex -11.5307 3.69552 0
    endloop
  endfacet
  facet normal 0.55557 -0.83147 0
    outer loop
      vertex -12.8284 2.82843 2
      vertex -12.8284 2.82843 0
      vertex -11.5307 3.69552 0
    endloop
  endfacet
  facet normal -0.19509 0.980785 0
    outer loop
      vertex 8.5458 3.51074 2
      vertex 8.5458 3.51074 5
      vertex 10 3.8 2
    endloop
  endfacet
  facet normal -0.19509 0.980785 0
    outer loop
      vertex 8.5458 3.51074 5
      vertex 10 3.8 5
      vertex 10 3.8 2
    endloop
  endfacet
  facet normal 0.83147 -0.55557 0
    outer loop
      vertex -12.8284 2.82843 2
      vertex -13.6955 1.53073 2
      vertex -12.8284 2.82843 0
    endloop
  endfacet
  facet normal 0.83147 -0.55557 0
    outer loop
      vertex -13.6955 1.53073 2
      vertex -13.6955 1.53073 0
      vertex -12.8284 2.82843 0
    endloop
  endfacet
  facet normal -0.55557 0.83147 0
    outer loop
      vertex 7.31299 2.68701 2
      vertex 7.31299 2.68701 5
      vertex 8.5458 3.51074 2
    endloop
  endfacet
  facet normal -0.55557 0.83147 0
    outer loop
      vertex 7.31299 2.68701 5
      vertex 8.5458 3.51074 5
      vertex 8.5458 3.51074 2
    endloop
  endfacet
  facet normal 0.980785 -0.19509 0
    outer loop
      vertex -13.6955 1.53073 2
      vertex -13.9005 0.5 2
      vertex -13.6955 1.53073 0
    endloop
  endfacet
  facet normal 0.980785 -0.19509 0
    outer loop
      vertex -13.9005 0.5 2
      vertex -13.9005 0.5 0
      vertex -13.6955 1.53073 0
    endloop
  endfacet
  facet normal 0 -1 0
    outer loop
      vertex -13.9005 0.5 2
      vertex -14.9749 0.5 2
      vertex -13.9005 0.5 0
    endloop
  endfacet
  facet normal 0 -1 0
    outer loop
      vertex -14.9749 0.5 2
      vertex -14.9749 0.5 0
      vertex -13.9005 0.5 0
    endloop
  endfacet
  facet normal 0 1 0
    outer loop
      vertex -10 5 2
      vertex 10 5 2
      vertex -10 5 0
    endloop
  endfacet
  facet normal 0 1 0
    outer loop
      vertex 10 5 2
      vertex 10 5 0
      vertex -10 5 0
    endloop
  endfacet
  facet normal 0 0 1
    outer loop
      vertex -14.7613 -1.52652 2
      vertex -14.575 -2.01733 2
      vertex -13.6955 -1.53073 2
    endloop
  endfacet
  facet normal 0 0 1
    outer loop
      vertex 7.31299 -2.68701 2
      vertex 6.48926 -1.4542 2
      vertex -7.17157 -2.82843 2
    endloop
  endfacet
  facet normal 0 0 1
    outer loop
      vertex -10.5243 -4.97244 2
      vertex -10 -5 2
      vertex -10 -4 2
    endloop
  endfacet
  facet normal 0 0 1
    outer loop
      vertex 13.0259 -3.98047 2
      vertex 13.4385 -3.62998 2
      vertex 12.687 -2.68701 2
    endloop
  endfacet
  facet normal 0 0 1
    outer loop
      vertex 13.4385 -3.62998 2
      vertex 13.8108 -3.23693 2
      vertex 12.687 -2.68701 2
    endloop
  endfacet
  facet normal 0 0 1
    outer loop
      vertex 13.8108 -3.23693 2
      vertex 14.1384 -2.80594 2
      vertex 12.687 -2.68701 2
    endloop
  endfacet
  facet normal 0 0 1
    outer loop
      vertex 14.1384 -2.80594 2
      vertex 14.4176 -2.34204 2
      vertex 12.687 -2.68701 2
    endloop
  endfacet
  facet normal 0 0 1
    outer loop
      vertex 12.687 -2.68701 2
      vertex 14.4176 -2.34204 2
      vertex 13.5107 -1.4542 2
    endloop
  endfacet
  facet normal 0 0 1
    outer loop
      vertex -7.17157 -2.82843 2
      vertex 6.48926 -1.4542 2
      vertex -6.30448 -1.53073 2
    endloop
  endfacet
  facet normal 0 0 1
    outer loop
      vertex -10 -4 2
      vertex -10 -5 2
      vertex -8.46927 -3.69552 2
    endloop
  endfacet
  facet normal 0 0 1
    outer loop
      vertex -10 -5 2
      vertex 10 -5 2
      vertex -8.46927 -3.69552 2
    endloop
  endfacet
  facet normal 0 0 1
    outer loop
      vertex -8.46927 -3.69552 2
      vertex 10 -5 2
      vertex -7.17157 -2.82843 2
    endloop
  endfacet
  facet normal 0 0 1
    outer loop
      vertex 14.4176 -2.34204 2
      vertex 14.6449 -1.85069 2
      vertex 13.5107 -1.4542 2
    endloop
  endfacet
  facet normal 0 0 1
    outer loop
      vertex 14.6449 -1.85069 2
      vertex 14.8178 -1.33764 2
      vertex 13.5107 -1.4542 2
    endloop
  endfacet
  facet normal 0 0 1
    outer loop
      vertex 13.5107 -1.4542 2
      vertex 14.8178 -1.33764 2
      vertex 13.8 -1.73472e-15 2
    endloop
  endfacet
  facet normal 0 0 1
    outer loop
      vertex 14.8178 -1.33764 2
      vertex 14.9341 -0.80891 2
      vertex 13.8 -1.73472e-15 2
    endloop
  endfacet
  facet normal 0 0 1
    outer loop
      vertex 13.8 -1.73472e-15 2
      vertex 14.9341 -0.80891 2
      vertex 14.9927 -0.270695 2
    endloop
  endfacet
  facet normal 0 0 1
    outer loop
      vertex 13.0259 -3.98047 2
      vertex 12.687 -2.68701 2
      vertex 12.5778 -4.28429 2
    endloop
  endfacet
  facet normal 0 0 1
    outer loop
      vertex 12.687 -2.68701 2
      vertex 11.4542 -3.51074 2
      vertex 12.5778 -4.28429 2
    endloop
  endfacet
  facet normal 0 0 1
    outer loop
      vertex 12.5778 -4.28429 2
      vertex 11.4542 -3.51074 2
      vertex 12.0994 -4.53788 2
    endloop
  endfacet
  facet normal 0 0 1
    outer loop
      vertex 10 -3.8 2
      vertex 11.0749 -4.8831 2
      vertex 11.4542 -3.51074 2
    endloop
  endfacet
  facet normal 0 0 1
    outer loop
      vertex 11.0749 -4.8831 2
      vertex 11.5965 -4.73827 2
      vertex 11.4542 -3.51074 2
    endloop
  endfacet
  facet normal 0 0 1
    outer loop
      vertex 11.4542 -3.51074 2
      vertex 11.5965 -4.73827 2
      vertex 12.0994 -4.53788 2
    endloop
  endfacet
  facet normal 0 0 1
    outer loop
      vertex 7.31299 2.68701 2
      vertex 8.5458 3.51074 2
      vertex -6.30448 1.53073 2
    endloop
  endfacet
  facet normal 0 0 1
    outer loop
      vertex 13.5107 1.4542 2
      vertex 14.6449 1.85069 2
      vertex 14.4176 2.34204 2
    endloop
  endfacet
  facet normal 0 0 1
    outer loop
      vertex 7.31299 -2.68701 2
      vertex -7.17157 -2.82843 2
      vertex 8.5458 -3.51074 2
    endloop
  endfacet
  facet normal 0 0 1
    outer loop
      vertex -7.17157 -2.82843 2
      vertex 10 -5 2
      vertex 8.5458 -3.51074 2
    endloop
  endfacet
  facet normal 0 0 1
    outer loop
      vertex 8.5458 -3.51074 2
      vertex 10 -5 2
      vertex 10 -3.8 2
    endloop
  endfacet
  facet normal 0 0 1
    outer loop
      vertex 10 -5 2
      vertex 10.5406 -4.97069 2
      vertex 10 -3.8 2
    endloop
  endfacet
  facet normal 0 0 1
    outer loop
      vertex 10 -3.8 2
      vertex 10.5406 -4.97069 2
      vertex 11.0749 -4.8831 2
    endloop
  endfacet
  facet normal 0 0 1
    outer loop
      vertex 13.8108 3.23693 2
      vertex 13.4385 3.62998 2
      vertex 12.687 2.68701 2
    endloop
  endfacet
  facet normal 0 0 1
    outer loop
      vertex 13.4385 3.62998 2
      vertex 13.0259 3.98047 2
      vertex 12.687 2.68701 2
    endloop
  endfacet
  facet normal 0 0 1
    outer loop
      vertex 12.687 2.68701 2
      vertex 13.0259 3.98047 2
      vertex 11.4542 3.51074 2
    endloop
  endfacet
  facet normal 0 0 1
    outer loop
      vertex 13.0259 3.98047 2
      vertex 12.5778 4.28429 2
      vertex 11.4542 3.51074 2
    endloop
  endfacet
  facet normal 0 0 1
    outer loop
      vertex 11.4542 3.51074 2
      vertex 12.5778 4.28429 2
      vertex 12.0994 4.53788 2
    endloop
  endfacet
  facet normal 0 0 1
    outer loop
      vertex -10.5243 -4.97244 2
      vertex -10 -4 2
      vertex -11.0427 -4.89006 2
    endloop
  endfacet
  facet normal 0 0 1
    outer loop
      vertex -10 -4 2
      vertex -11.5307 -3.69552 2
      vertex -11.0427 -4.89006 2
    endloop
  endfacet
  facet normal 0 0 1
    outer loop
      vertex -11.0427 -4.89006 2
      vertex -11.5307 -3.69552 2
      vertex -11.5497 -4.75377 2
    endloop
  endfacet
  facet normal 0 0 1
    outer loop
      vertex -13.3541 -3.7081 2
      vertex -12.9468 -4.03934 2
      vertex -12.8284 -2.82843 2
    endloop
  endfacet
  facet normal 0 0 1
    outer loop
      vertex -12.9468 -4.03934 2
      vertex -12.507 -4.32606 2
      vertex -12.8284 -2.82843 2
    endloop
  endfacet
  facet normal 0 0 1
    outer loop
      vertex -12.8284 -2.82843 2
      vertex -12.507 -4.32606 2
      vertex -11.5307 -3.69552 2
    endloop
  endfacet
  facet normal 0 0 1
    outer loop
      vertex -12.507 -4.32606 2
      vertex -12.0396 -4.56508 2
      vertex -11.5307 -3.69552 2
    endloop
  endfacet
  facet normal 0 0 1
    outer loop
      vertex -11.5307 -3.69552 2
      vertex -12.0396 -4.56508 2
      vertex -11.5497 -4.75377 2
    endloop
  endfacet
  facet normal 0 0 1
    outer loop
      vertex 10 3.8 2
      vertex 10 5 2
      vertex 8.5458 3.51074 2
    endloop
  endfacet
  facet normal 0 0 1
    outer loop
      vertex 10 5 2
      vertex -10 5 2
      vertex 8.5458 3.51074 2
    endloop
  endfacet
  facet normal 0 0 1
    outer loop
      vertex 13.5107 1.4542 2
      vertex 14.4176 2.34204 2
      vertex 12.687 2.68701 2
    endloop
  endfacet
  facet normal 0 0 1
    outer loop
      vertex 14.4176 2.34204 2
      vertex 14.1384 2.80594 2
      vertex 12.687 2.68701 2
    endloop
  endfacet
  facet normal 0 0 1
    outer loop
      vertex 12.687 2.68701 2
      vertex 14.1384 2.80594 2
      vertex 13.8108 3.23693 2
    endloop
  endfacet
  facet normal 0 0 1
    outer loop
      vertex 14.9927 -0.270695 2
      vertex 14.9927 0.270695 2
      vertex 13.8 -1.73472e-15 2
    endloop
  endfacet
  facet normal 0 0 1
    outer loop
      vertex 14.9927 0.270695 2
      vertex 14.9341 0.80891 2
      vertex 13.8 -1.73472e-15 2
    endloop
  endfacet
  facet normal 0 0 1
    outer loop
      vertex 13.8 -1.73472e-15 2
      vertex 14.9341 0.80891 2
      vertex 13.5107 1.4542 2
    endloop
  endfacet
  facet normal 0 0 1
    outer loop
      vertex 14.9341 0.80891 2
      vertex 14.8178 1.33764 2
      vertex 13.5107 1.4542 2
    endloop
  endfacet
  facet normal 0 0 1
    outer loop
      vertex 13.5107 1.4542 2
      vertex 14.8178 1.33764 2
      vertex 14.6449 1.85069 2
    endloop
  endfacet
  facet normal 0 0 1
    outer loop
      vertex -6.30448 -1.53073 2
      vertex 6.48926 -1.4542 2
      vertex -6 -1.0842e-15 2
    endloop
  endfacet
  facet normal 0 0 1
    outer loop
      vertex 6.48926 -1.4542 2
      vertex 6.2 -1.95156e-15 2
      vertex -6 -1.0842e-15 2
    endloop
  endfacet
  facet normal 0 0 1
    outer loop
      vertex -6 -1.0842e-15 2
      vertex 6.2 -1.95156e-15 2
      vertex -6.30448 1.53073 2
    endloop
  endfacet
  facet normal 0 0 1
    outer loop
      vertex 6.2 -1.95156e-15 2
      vertex 6.48926 1.4542 2
      vertex -6.30448 1.53073 2
    endloop
  endfacet
  facet normal 0 0 1
    outer loop
      vertex -6.30448 1.53073 2
      vertex 6.48926 1.4542 2
      vertex 7.31299 2.68701 2
    endloop
  endfacet
  facet normal 0 0 1
    outer loop
      vertex -14.575 -2.01733 2
      vertex -14.3382 -2.48591 2
      vertex -13.6955 -1.53073 2
    endloop
  endfacet
  facet normal 0 0 1
    outer loop
      vertex -14.3382 -2.48591 2
      vertex -14.0537 -2.92708 2
      vertex -13.6955 -1.53073 2
    endloop
  endfacet
  facet normal 0 0 1
    outer loop
      vertex -13.6955 -1.53073 2
      vertex -14.0537 -2.92708 2
      vertex -12.8284 -2.82843 2
    endloop
  endfacet
  facet normal 0 0 1
    outer loop
      vertex -14.0537 -2.92708 2
      vertex -13.7244 -3.33598 2
      vertex -12.8284 -2.82843 2
    endloop
  endfacet
  facet normal 0 0 1
    outer loop
      vertex -12.8284 -2.82843 2
      vertex -13.7244 -3.33598 2
      vertex -13.3541 -3.7081 2
    endloop
  endfacet
  facet normal 0 0 1
    outer loop
      vertex -14.7613 -1.52652 2
      vertex -13.6955 -1.53073 2
      vertex -14.8951 -1.01888 2
    endloop
  endfacet
  facet normal 0 0 1
    outer loop
      vertex -13.6955 -1.53073 2
      vertex -13.9005 -0.5 2
      vertex -14.8951 -1.01888 2
    endloop
  endfacet
  facet normal 0 0 1
    outer loop
      vertex -14.8951 -1.01888 2
      vertex -13.9005 -0.5 2
      vertex -14.9749 -0.5 2
    endloop
  endfacet
  facet normal 0 0 1
    outer loop
      vertex -14.9749 0.5 2
      vertex -13.9005 0.5 2
      vertex -14.8951 1.01888 2
    endloop
  endfacet
  facet normal 0 0 1
    outer loop
      vertex -13.9005 0.5 2
      vertex -13.6955 1.53073 2
      vertex -14.8951 1.01888 2
    endloop
  endfacet
  facet normal 0 0 1
    outer loop
      vertex -14.8951 1.01888 2
      vertex -13.6955 1.53073 2
      vertex -14.7613 1.52652 2
    endloop
  endfacet
  facet normal 0 0 1
    outer loop
      vertex 12.0994 4.53788 2
      vertex 11.5965 4.73827 2
      vertex 11.4542 3.51074 2
    endloop
  endfacet
  facet normal 0 0 1
    outer loop
      vertex 11.5965 4.73827 2
      vertex 11.0749 4.8831 2
      vertex 11.4542 3.51074 2
    endloop
  endfacet
  facet normal 0 0 1
    outer loop
      vertex 11.4542 3.51074 2
      vertex 11.0749 4.8831 2
      vertex 10 3.8 2
    endloop
  endfacet
  facet normal 0 0 1
    outer loop
      vertex 11.0749 4.8831 2
      vertex 10.5406 4.97069 2
      vertex 10 3.8 2
    endloop
  endfacet
  facet normal 0 0 1
    outer loop
      vertex 10 3.8 2
      vertex 10.5406 4.97069 2
      vertex 10 5 2
    endloop
  endfacet
  facet normal 0 0 1
    outer loop
      vertex -12.8284 2.82843 2
      vertex -13.3541 3.7081 2
      vertex -13.7244 3.33598 2
    endloop
  endfacet
  facet normal 0 0 1
    outer loop
      vertex -13.7244 3.33598 2
      vertex -14.0537 2.92708 2
      vertex -12.8284 2.82843 2
    endloop
  endfacet
  facet normal 0 0 1
    outer loop
      vertex -14.0537 2.92708 2
      vertex -14.3382 2.48591 2
      vertex -12.8284 2.82843 2
    endloop
  endfacet
  facet normal 0 0 1
    outer loop
      vertex -12.8284 2.82843 2
      vertex -14.3382 2.48591 2
      vertex -13.6955 1.53073 2
    endloop
  endfacet
  facet normal 0 0 1
    outer loop
      vertex -14.3382 2.48591 2
      vertex -14.575 2.01733 2
      vertex -13.6955 1.53073 2
    endloop
  endfacet
  facet normal 0 0 1
    outer loop
      vertex -13.6955 1.53073 2
      vertex -14.575 2.01733 2
      vertex -14.7613 1.52652 2
    endloop
  endfacet
  facet normal 0 0 1
    outer loop
      vertex -11.5307 3.69552 2
      vertex -11.0427 4.89006 2
      vertex -11.5497 4.75377 2
    endloop
  endfacet
  facet normal 0 0 1
    outer loop
      vertex -11.5497 4.75377 2
      vertex -12.0396 4.56508 2
      vertex -11.5307 3.69552 2
    endloop
  endfacet
  facet normal 0 0 1
    outer loop
      vertex -12.0396 4.56508 2
      vertex -12.507 4.32606 2
      vertex -11.5307 3.69552 2
    endloop
  endfacet
  facet normal 0 0 1
    outer loop
      vertex -11.5307 3.69552 2
      vertex -12.507 4.32606 2
      vertex -12.8284 2.82843 2
    endloop
  endfacet
  facet normal 0 0 1
    outer loop
      vertex -12.507 4.32606 2
      vertex -12.9468 4.03934 2
      vertex -12.8284 2.82843 2
    endloop
  endfacet
  facet normal 0 0 1
    outer loop
      vertex -12.8284 2.82843 2
      vertex -12.9468 4.03934 2
      vertex -13.3541 3.7081 2
    endloop
  endfacet
  facet normal 0 0 1
    outer loop
      vertex -11.0427 4.89006 2
      vertex -11.5307 3.69552 2
      vertex -10.5243 4.97244 2
    endloop
  endfacet
  facet normal 0 0 1
    outer loop
      vertex -11.5307 3.69552 2
      vertex -10 4 2
      vertex -10.5243 4.97244 2
    endloop
  endfacet
  facet normal 0 0 1
    outer loop
      vertex -10.5243 4.97244 2
      vertex -10 4 2
      vertex -10 5 2
    endloop
  endfacet
  facet normal 0 0 1
    outer loop
      vertex -10 4 2
      vertex -8.46927 3.69552 2
      vertex -10 5 2
    endloop
  endfacet
  facet normal 0 0 1
    outer loop
      vertex -10 5 2
      vertex -8.46927 3.69552 2
      vertex 8.5458 3.51074 2
    endloop
  endfacet
  facet normal 0 0 1
    outer loop
      vertex -8.46927 3.69552 2
      vertex -7.17157 2.82843 2
      vertex 8.5458 3.51074 2
    endloop
  endfacet
  facet normal 0 0 1
    outer loop
      vertex 8.5458 3.51074 2
      vertex -7.17157 2.82843 2
      vertex -6.30448 1.53073 2
    endloop
  endfacet
  facet normal -0.0524981 0.998621 0
    outer loop
      vertex -10 5 2
      vertex -10 5 0
      vertex -10.5243 4.97244 0
    endloop
  endfacet
  facet normal -0.0524981 0.998621 0
    outer loop
      vertex -10 5 2
      vertex -10.5243 4.97244 0
      vertex -10.5243 4.97244 2
    endloop
  endfacet
  facet normal -0.156916 0.987612 0
    outer loop
      vertex -10.5243 4.97244 0
      vertex -11.0427 4.89006 0
      vertex -10.5243 4.97244 2
    endloop
  endfacet
  facet normal -0.156916 0.987612 0
    outer loop
      vertex -10.5243 4.97244 2
      vertex -11.0427 4.89006 0
      vertex -11.0427 4.89006 2
    endloop
  endfacet
  facet normal -0.259604 0.965715 0
    outer loop
      vertex -11.0427 4.89006 0
      vertex -11.5497 4.75377 0
      vertex -11.0427 4.89006 2
    endloop
  endfacet
  facet normal -0.259604 0.965715 0
    outer loop
      vertex -11.0427 4.89006 2
      vertex -11.5497 4.75377 0
      vertex -11.5497 4.75377 2
    endloop
  endfacet
  facet normal -0.359431 0.933172 0
    outer loop
      vertex -11.5497 4.75377 0
      vertex -12.0396 4.56508 0
      vertex -11.5497 4.75377 2
    endloop
  endfacet
  facet normal -0.359431 0.933172 0
    outer loop
      vertex -11.5497 4.75377 2
      vertex -12.0396 4.56508 0
      vertex -12.0396 4.56508 2
    endloop
  endfacet
  facet normal -0.455294 0.890341 0
    outer loop
      vertex -12.0396 4.56508 0
      vertex -12.507 4.32606 0
      vertex -12.0396 4.56508 2
    endloop
  endfacet
  facet normal -0.455294 0.890341 0
    outer loop
      vertex -12.0396 4.56508 2
      vertex -12.507 4.32606 0
      vertex -12.507 4.32606 2
    endloop
  endfacet
  facet normal -0.546138 0.837695 0
    outer loop
      vertex -12.507 4.32606 0
      vertex -12.9468 4.03934 0
      vertex -12.507 4.32606 2
    endloop
  endfacet
  facet normal -0.546138 0.837695 0
    outer loop
      vertex -12.507 4.32606 2
      vertex -12.9468 4.03934 0
      vertex -12.9468 4.03934 2
    endloop
  endfacet
  facet normal -0.630961 0.775814 0
    outer loop
      vertex -12.9468 4.03934 0
      vertex -13.3541 3.7081 0
      vertex -12.9468 4.03934 2
    endloop
  endfacet
  facet normal -0.630961 0.775814 0
    outer loop
      vertex -12.9468 4.03934 2
      vertex -13.3541 3.7081 0
      vertex -13.3541 3.7081 2
    endloop
  endfacet
  facet normal -0.708829 0.70538 0
    outer loop
      vertex -13.3541 3.7081 0
      vertex -13.7244 3.33598 0
      vertex -13.3541 3.7081 2
    endloop
  endfacet
  facet normal -0.708829 0.70538 0
    outer loop
      vertex -13.3541 3.7081 2
      vertex -13.7244 3.33598 0
      vertex -13.7244 3.33598 2
    endloop
  endfacet
  facet normal -0.778882 0.627171 0
    outer loop
      vertex -13.7244 3.33598 0
      vertex -14.0537 2.92708 0
      vertex -13.7244 3.33598 2
    endloop
  endfacet
  facet normal -0.778882 0.627171 0
    outer loop
      vertex -13.7244 3.33598 2
      vertex -14.0537 2.92708 0
      vertex -14.0537 2.92708 2
    endloop
  endfacet
  facet normal -0.840349 0.542045 0
    outer loop
      vertex -14.0537 2.92708 0
      vertex -14.3382 2.48591 0
      vertex -14.0537 2.92708 2
    endloop
  endfacet
  facet normal -0.840349 0.542045 0
    outer loop
      vertex -14.0537 2.92708 2
      vertex -14.3382 2.48591 0
      vertex -14.3382 2.48591 2
    endloop
  endfacet
  facet normal -0.892552 0.450945 0
    outer loop
      vertex -14.3382 2.48591 0
      vertex -14.575 2.01733 0
      vertex -14.3382 2.48591 2
    endloop
  endfacet
  facet normal -0.892552 0.450945 0
    outer loop
      vertex -14.3382 2.48591 2
      vertex -14.575 2.01733 0
      vertex -14.575 2.01733 2
    endloop
  endfacet
  facet normal -0.934914 0.354875 0
    outer loop
      vertex -14.575 2.01733 0
      vertex -14.7613 1.52652 0
      vertex -14.575 2.01733 2
    endloop
  endfacet
  facet normal -0.934914 0.354875 0
    outer loop
      vertex -14.575 2.01733 2
      vertex -14.7613 1.52652 0
      vertex -14.7613 1.52652 2
    endloop
  endfacet
  facet normal -0.96697 0.254891 0
    outer loop
      vertex -14.7613 1.52652 0
      vertex -14.8951 1.01888 0
      vertex -14.7613 1.52652 2
    endloop
  endfacet
  facet normal -0.96697 0.254891 0
    outer loop
      vertex -14.7613 1.52652 2
      vertex -14.8951 1.01888 0
      vertex -14.8951 1.01888 2
    endloop
  endfacet
  facet normal -0.988366 0.152096 0
    outer loop
      vertex -14.8951 1.01888 0
      vertex -14.9749 0.5 0
      vertex -14.8951 1.01888 2
    endloop
  endfacet
  facet normal -0.988366 0.152096 0
    outer loop
      vertex -14.8951 1.01888 2
      vertex -14.9749 0.5 0
      vertex -14.9749 0.5 2
    endloop
  endfacet
  facet normal 0 1 0
    outer loop
      vertex -14.9749 -0.5 2
      vertex -13.9005 -0.5 2
      vertex -14.9749 -0.5 0
    endloop
  endfacet
  facet normal 0 1 0
    outer loop
      vertex -13.9005 -0.5 2
      vertex -13.9005 -0.5 0
      vertex -14.9749 -0.5 0
    endloop
  endfacet
  facet normal 0.19509 0.980785 0
    outer loop
      vertex 10 3.8 2
      vertex 10 3.8 5
      vertex 11.4542 3.51074 2
    endloop
  endfacet
  facet normal 0.19509 0.980785 0
    outer loop
      vertex 10 3.8 5
      vertex 11.4542 3.51074 5
      vertex 11.4542 3.51074 2
    endloop
  endfacet
  facet normal -0.988366 -0.152096 0
    outer loop
      vertex -14.9749 -0.5 2
      vertex -14.9749 -0.5 0
      vertex -14.8951 -1.01888 0
    endloop
  endfacet
  facet normal -0.988366 -0.152096 0
    outer loop
      vertex -14.9749 -0.5 2
      vertex -14.8951 -1.01888 0
      vertex -14.8951 -1.01888 2
    endloop
  endfacet
  facet normal -0.96697 -0.254891 0
    outer loop
      vertex -14.8951 -1.01888 0
      vertex -14.7613 -1.52652 0
      vertex -14.8951 -1.01888 2
    endloop
  endfacet
  facet normal -0.96697 -0.254891 0
    outer loop
      vertex -14.8951 -1.01888 2
      vertex -14.7613 -1.52652 0
      vertex -14.7613 -1.52652 2
    endloop
  endfacet
  facet normal -0.934914 -0.354875 0
    outer loop
      vertex -14.7613 -1.52652 0
      vertex -14.575 -2.01733 0
      vertex -14.7613 -1.52652 2
    endloop
  endfacet
  facet normal -0.934914 -0.354875 0
    outer loop
      vertex -14.7613 -1.52652 2
      vertex -14.575 -2.01733 0
      vertex -14.575 -2.01733 2
    endloop
  endfacet
  facet normal -0.892552 -0.450945 0
    outer loop
      vertex -14.575 -2.01733 0
      vertex -14.3382 -2.48591 0
      vertex -14.575 -2.01733 2
    endloop
  endfacet
  facet normal -0.892552 -0.450945 0
    outer loop
      vertex -14.575 -2.01733 2
      vertex -14.3382 -2.48591 0
      vertex -14.3382 -2.48591 2
    endloop
  endfacet
  facet normal -0.840349 -0.542045 0
    outer loop
      vertex -14.3382 -2.48591 0
      vertex -14.0537 -2.92708 0
      vertex -14.3382 -2.48591 2
    endloop
  endfacet
  facet normal -0.840349 -0.542045 0
    outer loop
      vertex -14.3382 -2.48591 2
      vertex -14.0537 -2.92708 0
      vertex -14.0537 -2.92708 2
    endloop
  endfacet
  facet normal -0.778882 -0.627171 0
    outer loop
      vertex -14.0537 -2.92708 0
      vertex -13.7244 -3.33598 0
      vertex -14.0537 -2.92708 2
    endloop
  endfacet
  facet normal -0.778882 -0.627171 0
    outer loop
      vertex -14.0537 -2.92708 2
      vertex -13.7244 -3.33598 0
      vertex -13.7244 -3.33598 2
    endloop
  endfacet
  facet normal -0.708829 -0.70538 0
    outer loop
      vertex -13.7244 -3.33598 0
      vertex -13.3541 -3.7081 0
      vertex -13.7244 -3.33598 2
    endloop
  endfacet
  facet normal -0.708829 -0.70538 0
    outer loop
      vertex -13.7244 -3.33598 2
      vertex -13.3541 -3.7081 0
      vertex -13.3541 -3.7081 2
    endloop
  endfacet
  facet normal -0.630961 -0.775814 0
    outer loop
      vertex -13.3541 -3.7081 0
      vertex -12.9468 -4.03934 0
      vertex -13.3541 -3.7081 2
    endloop
  endfacet
  facet normal -0.630961 -0.775814 0
    outer loop
      vertex -13.3541 -3.7081 2
      vertex -12.9468 -4.03934 0
      vertex -12.9468 -4.03934 2
    endloop
  endfacet
  facet normal -0.546138 -0.837695 0
    outer loop
      vertex -12.9468 -4.03934 0
      vertex -12.507 -4.32606 0
      vertex -12.9468 -4.03934 2
    endloop
  endfacet
  facet normal -0.546138 -0.837695 0
    outer loop
      vertex -12.9468 -4.03934 2
      vertex -12.507 -4.32606 0
      vertex -12.507 -4.32606 2
    endloop
  endfacet
  facet normal -0.455294 -0.890341 0
    outer loop
      vertex -12.507 -4.32606 0
      vertex -12.0396 -4.56508 0
      vertex -12.507 -4.32606 2
    endloop
  endfacet
  facet normal -0.455294 -0.890341 0
    outer loop
      vertex -12.507 -4.32606 2
      vertex -12.0396 -4.56508 0
      vertex -12.0396 -4.56508 2
    endloop
  endfacet
  facet normal -0.359431 -0.933172 0
    outer loop
      vertex -12.0396 -4.56508 0
      vertex -11.5497 -4.75377 0
      vertex -12.0396 -4.56508 2
    endloop
  endfacet
  facet normal -0.359431 -0.933172 0
    outer loop
      vertex -12.0396 -4.56508 2
      vertex -11.5497 -4.75377 0
      vertex -11.5497 -4.75377 2
    endloop
  endfacet
  facet normal -0.259604 -0.965715 0
    outer loop
      vertex -11.5497 -4.75377 0
      vertex -11.0427 -4.89006 0
      vertex -11.5497 -4.75377 2
    endloop
  endfacet
  facet normal -0.259604 -0.965715 0
    outer loop
      vertex -11.5497 -4.75377 2
      vertex -11.0427 -4.89006 0
      vertex -11.0427 -4.89006 2
    endloop
  endfacet
  facet normal -0.156916 -0.987612 0
    outer loop
      vertex -11.0427 -4.89006 0
      vertex -10.5243 -4.97244 0
      vertex -11.0427 -4.89006 2
    endloop
  endfacet
  facet normal -0.156916 -0.987612 0
    outer loop
      vertex -11.0427 -4.89006 2
      vertex -10.5243 -4.97244 0
      vertex -10.5243 -4.97244 2
    endloop
  endfacet
  facet normal -0.0524981 -0.998621 0
    outer loop
      vertex -10.5243 -4.97244 0
      vertex -10 -5 0
      vertex -10.5243 -4.97244 2
    endloop
  endfacet
  facet normal -0.0524981 -0.998621 0
    outer loop
      vertex -10.5243 -4.97244 2
      vertex -10 -5 0
      vertex -10 -5 2
    endloop
  endfacet
  facet normal 0 -1 0
    outer loop
      vertex 10 -5 2
      vertex -10 -5 2
      vertex 10 -5 0
    endloop
  endfacet
  facet normal 0 -1 0
    outer loop
      vertex -10 -5 2
      vertex -10 -5 0
      vertex 10 -5 0
    endloop
  endfacet
  facet normal 0.55557 0.83147 0
    outer loop
      vertex 11.4542 3.51074 2
      vertex 11.4542 3.51074 5
      vertex 12.687 2.68701 2
    endloop
  endfacet
  facet normal 0.55557 0.83147 0
    outer loop
      vertex 11.4542 3.51074 5
      vertex 12.687 2.68701 5
      vertex 12.687 2.68701 2
    endloop
  endfacet
  facet normal 0.0541387 -0.998533 0
    outer loop
      vertex 10 -5 2
      vertex 10 -5 0
      vertex 10.5406 -4.97069 0
    endloop
  endfacet
  facet normal 0.0541387 -0.998533 0
    outer loop
      vertex 10 -5 2
      vertex 10.5406 -4.97069 0
      vertex 10.5406 -4.97069 2
    endloop
  endfacet
  facet normal 0.161782 -0.986826 0
    outer loop
      vertex 10.5406 -4.97069 0
      vertex 11.0749 -4.8831 0
      vertex 10.5406 -4.97069 2
    endloop
  endfacet
  facet normal 0.161782 -0.986826 0
    outer loop
      vertex 10.5406 -4.97069 2
      vertex 11.0749 -4.8831 0
      vertex 11.0749 -4.8831 2
    endloop
  endfacet
  facet normal 0.267529 -0.96355 0
    outer loop
      vertex 11.0749 -4.8831 0
      vertex 11.5965 -4.73827 0
      vertex 11.0749 -4.8831 2
    endloop
  endfacet
  facet normal 0.267529 -0.96355 0
    outer loop
      vertex 11.0749 -4.8831 2
      vertex 11.5965 -4.73827 0
      vertex 11.5965 -4.73827 2
    endloop
  endfacet
  facet normal 0.370137 -0.928977 0
    outer loop
      vertex 11.5965 -4.73827 0
      vertex 12.0994 -4.53788 0
      vertex 11.5965 -4.73827 2
    endloop
  endfacet
  facet normal 0.370137 -0.928977 0
    outer loop
      vertex 11.5965 -4.73827 2
      vertex 12.0994 -4.53788 0
      vertex 12.0994 -4.53788 2
    endloop
  endfacet
  facet normal 0.468409 -0.883512 0
    outer loop
      vertex 12.0994 -4.53788 0
      vertex 12.5778 -4.28429 0
      vertex 12.0994 -4.53788 2
    endloop
  endfacet
  facet normal 0.468409 -0.883512 0
    outer loop
      vertex 12.0994 -4.53788 2
      vertex 12.5778 -4.28429 0
      vertex 12.5778 -4.28429 2
    endloop
  endfacet
  facet normal 0.561187 -0.827689 0
    outer loop
      vertex 12.5778 -4.28429 0
      vertex 13.0259 -3.98047 0
      vertex 12.5778 -4.28429 2
    endloop
  endfacet
  facet normal 0.561187 -0.827689 0
    outer loop
      vertex 12.5778 -4.28429 2
      vertex 13.0259 -3.98047 0
      vertex 13.0259 -3.98047 2
    endloop
  endfacet
  facet normal 0.647386 -0.762162 0
    outer loop
      vertex 13.0259 -3.98047 0
      vertex 13.4385 -3.62998 0
      vertex 13.0259 -3.98047 2
    endloop
  endfacet
  facet normal 0.647386 -0.762162 0
    outer loop
      vertex 13.0259 -3.98047 2
      vertex 13.4385 -3.62998 0
      vertex 13.4385 -3.62998 2
    endloop
  endfacet
  facet normal 0.725995 -0.6877 0
    outer loop
      vertex 13.4385 -3.62998 0
      vertex 13.8108 -3.23693 0
      vertex 13.4385 -3.62998 2
    endloop
  endfacet
  facet normal 0.725995 -0.6877 0
    outer loop
      vertex 13.4385 -3.62998 2
      vertex 13.8108 -3.23693 0
      vertex 13.8108 -3.23693 2
    endloop
  endfacet
  facet normal 0.796093 -0.605174 0
    outer loop
      vertex 13.8108 -3.23693 0
      vertex 14.1384 -2.80594 0
      vertex 13.8108 -3.23693 2
    endloop
  endfacet
  facet normal 0.796093 -0.605174 0
    outer loop
      vertex 13.8108 -3.23693 2
      vertex 14.1384 -2.80594 0
      vertex 14.1384 -2.80594 2
    endloop
  endfacet
  facet normal 0.856858 -0.515553 0
    outer loop
      vertex 14.1384 -2.80594 0
      vertex 14.4176 -2.34204 0
      vertex 14.1384 -2.80594 2
    endloop
  endfacet
  facet normal 0.856858 -0.515553 0
    outer loop
      vertex 14.1384 -2.80594 2
      vertex 14.4176 -2.34204 0
      vertex 14.4176 -2.34204 2
    endloop
  endfacet
  facet normal 0.907575 -0.41989 0
    outer loop
      vertex 14.4176 -2.34204 0
      vertex 14.6449 -1.85069 0
      vertex 14.4176 -2.34204 2
    endloop
  endfacet
  facet normal 0.907575 -0.41989 0
    outer loop
      vertex 14.4176 -2.34204 2
      vertex 14.6449 -1.85069 0
      vertex 14.6449 -1.85069 2
    endloop
  endfacet
  facet normal 0.947653 -0.319302 0
    outer loop
      vertex 14.6449 -1.85069 0
      vertex 14.8178 -1.33764 0
      vertex 14.6449 -1.85069 2
    endloop
  endfacet
  facet normal 0.947653 -0.319302 0
    outer loop
      vertex 14.6449 -1.85069 2
      vertex 14.8178 -1.33764 0
      vertex 14.8178 -1.33764 2
    endloop
  endfacet
  facet normal 0.976621 -0.214971 0
    outer loop
      vertex 14.8178 -1.33764 0
      vertex 14.9341 -0.80891 0
      vertex 14.8178 -1.33764 2
    endloop
  endfacet
  facet normal 0.976621 -0.214971 0
    outer loop
      vertex 14.8178 -1.33764 2
      vertex 14.9341 -0.80891 0
      vertex 14.9341 -0.80891 2
    endloop
  endfacet
  facet normal 0.994138 -0.108119 0
    outer loop
      vertex 14.9341 -0.80891 0
      vertex 14.9927 -0.270695 0
      vertex 14.9341 -0.80891 2
    endloop
  endfacet
  facet normal 0.994138 -0.108119 0
    outer loop
      vertex 14.9341 -0.80891 2
      vertex 14.9927 -0.270695 0
      vertex 14.9927 -0.270695 2
    endloop
  endfacet
  facet normal 1 0 0
    outer loop
      vertex 14.9927 -0.270695 0
      vertex 14.9927 0.270695 0
      vertex 14.9927 -0.270695 2
    endloop
  endfacet
  facet normal 1 0 0
    outer loop
      vertex 14.9927 -0.270695 2
      vertex 14.9927 0.270695 0
      vertex 14.9927 0.270695 2
    endloop
  endfacet
  facet normal 0.994138 0.108119 0
    outer loop
      vertex 14.9927 0.270695 0
      vertex 14.9341 0.80891 0
      vertex 14.9927 0.270695 2
    endloop
  endfacet
  facet normal 0.994138 0.108119 0
    outer loop
      vertex 14.9927 0.270695 2
      vertex 14.9341 0.80891 0
      vertex 14.9341 0.80891 2
    endloop
  endfacet
  facet normal 0.976621 0.214971 0
    outer loop
      vertex 14.9341 0.80891 0
      vertex 14.8178 1.33764 0
      vertex 14.9341 0.80891 2
    endloop
  endfacet
  facet normal 0.976621 0.214971 0
    outer loop
      vertex 14.9341 0.80891 2
      vertex 14.8178 1.33764 0
      vertex 14.8178 1.33764 2
    endloop
  endfacet
  facet normal 0.947653 0.319302 0
    outer loop
      vertex 14.8178 1.33764 0
      vertex 14.6449 1.85069 0
      vertex 14.8178 1.33764 2
    endloop
  endfacet
  facet normal 0.947653 0.319302 0
    outer loop
      vertex 14.8178 1.33764 2
      vertex 14.6449 1.85069 0
      vertex 14.6449 1.85069 2
    endloop
  endfacet
  facet normal 0.907575 0.41989 0
    outer loop
      vertex 14.6449 1.85069 0
      vertex 14.4176 2.34204 0
      vertex 14.6449 1.85069 2
    endloop
  endfacet
  facet normal 0.907575 0.41989 0
    outer loop
      vertex 14.6449 1.85069 2
      vertex 14.4176 2.34204 0
      vertex 14.4176 2.34204 2
    endloop
  endfacet
  facet normal 0.856858 0.515553 0
    outer loop
      vertex 14.4176 2.34204 0
      vertex 14.1384 2.80594 0
      vertex 14.4176 2.34204 2
    endloop
  endfacet
  facet normal 0.856858 0.515553 0
    outer loop
      vertex 14.4176 2.34204 2
      vertex 14.1384 2.80594 0
      vertex 14.1384 2.80594 2
    endloop
  endfacet
  facet normal 0.796093 0.605174 0
    outer loop
      vertex 14.1384 2.80594 0
      vertex 13.8108 3.23693 0
      vertex 14.1384 2.80594 2
    endloop
  endfacet
  facet normal 0.796093 0.605174 0
    outer loop
      vertex 14.1384 2.80594 2
      vertex 13.8108 3.23693 0
      vertex 13.8108 3.23693 2
    endloop
  endfacet
  facet normal 0.725995 0.6877 0
    outer loop
      vertex 13.8108 3.23693 0
      vertex 13.4385 3.62998 0
      vertex 13.8108 3.23693 2
    endloop
  endfacet
  facet normal 0.725995 0.6877 0
    outer loop
      vertex 13.8108 3.23693 2
      vertex 13.4385 3.62998 0
      vertex 13.4385 3.62998 2
    endloop
  endfacet
  facet normal 0.647386 0.762162 0
    outer loop
      vertex 13.4385 3.62998 0
      vertex 13.0259 3.98047 0
      vertex 13.4385 3.62998 2
    endloop
  endfacet
  facet normal 0.647386 0.762162 0
    outer loop
      vertex 13.4385 3.62998 2
      vertex 13.0259 3.98047 0
      vertex 13.0259 3.98047 2
    endloop
  endfacet
  facet normal 0.561187 0.827689 0
    outer loop
      vertex 13.0259 3.98047 0
      vertex 12.5778 4.28429 0
      vertex 13.0259 3.98047 2
    endloop
  endfacet
  facet normal 0.561187 0.827689 0
    outer loop
      vertex 13.0259 3.98047 2
      vertex 12.5778 4.28429 0
      vertex 12.5778 4.28429 2
    endloop
  endfacet
  facet normal 0.468409 0.883512 0
    outer loop
      vertex 12.5778 4.28429 0
      vertex 12.0994 4.53788 0
      vertex 12.5778 4.28429 2
    endloop
  endfacet
  facet normal 0.468409 0.883512 0
    outer loop
      vertex 12.5778 4.28429 2
      vertex 12.0994 4.53788 0
      vertex 12.0994 4.53788 2
    endloop
  endfacet
  facet normal 0.370137 0.928977 0
    outer loop
      vertex 12.0994 4.53788 0
      vertex 11.5965 4.73827 0
      vertex 12.0994 4.53788 2
    endloop
  endfacet
  facet normal 0.370137 0.928977 0
    outer loop
      vertex 12.0994 4.53788 2
      vertex 11.5965 4.73827 0
      vertex 11.5965 4.73827 2
    endloop
  endfacet
  facet normal 0.267529 0.96355 0
    outer loop
      vertex 11.5965 4.73827 0
      vertex 11.0749 4.8831 0
      vertex 11.5965 4.73827 2
    endloop
  endfacet
  facet normal 0.267529 0.96355 0
    outer loop
      vertex 11.5965 4.73827 2
      vertex 11.0749 4.8831 0
      vertex 11.0749 4.8831 2
    endloop
  endfacet
  facet normal 0.161782 0.986826 0
    outer loop
      vertex 11.0749 4.8831 0
      vertex 10.5406 4.97069 0
      vertex 11.0749 4.8831 2
    endloop
  endfacet
  facet normal 0.161782 0.986826 0
    outer loop
      vertex 11.0749 4.8831 2
      vertex 10.5406 4.97069 0
      vertex 10.5406 4.97069 2
    endloop
  endfacet
  facet normal 0.0541387 0.998533 0
    outer loop
      vertex 10.5406 4.97069 0
      vertex 10 5 0
      vertex 10.5406 4.97069 2
    endloop
  endfacet
  facet normal 0.0541387 0.998533 0
    outer loop
      vertex 10.5406 4.97069 2
      vertex 10 5 0
      vertex 10 5 2
    endloop
  endfacet
  facet normal 0.19509 -0.980785 0
    outer loop
      vertex -10 4 2
      vertex -11.5307 3.69552 2
      vertex -10 4 0
    endloop
  endfacet
  facet normal 0.19509 -0.980785 0
    outer loop
      vertex -11.5307 3.69552 2
      vertex -11.5307 3.69552 0
      vertex -10 4 0
    endloop
  endfacet
  facet normal 0.83147 0.55557 0
    outer loop
      vertex 12.687 2.68701 2
      vertex 12.687 2.68701 5
      vertex 13.5107 1.4542 2
    endloop
  endfacet
  facet normal 0.83147 0.55557 0
    outer loop
      vertex 12.687 2.68701 5
      vertex 13.5107 1.4542 5
      vertex 13.5107 1.4542 2
    endloop
  endfacet
  facet normal -0.19509 -0.980785 0
    outer loop
      vertex -8.46927 3.69552 2
      vertex -10 4 2
      vertex -8.46927 3.69552 0
    endloop
  endfacet
  facet normal -0.19509 -0.980785 0
    outer loop
      vertex -10 4 2
      vertex -10 4 0
      vertex -8.46927 3.69552 0
    endloop
  endfacet
  facet normal 0.980785 0.19509 0
    outer loop
      vertex 13.5107 1.4542 2
      vertex 13.5107 1.4542 5
      vertex 13.8 -1.73472e-15 2
    endloop
  endfacet
  facet normal 0.980785 0.19509 0
    outer loop
      vertex 13.5107 1.4542 5
      vertex 13.8 -1.73472e-15 5
      vertex 13.8 -1.73472e-15 2
    endloop
  endfacet
  facet normal -0.55557 -0.83147 0
    outer loop
      vertex -7.17157 2.82843 2
      vertex -8.46927 3.69552 2
      vertex -7.17157 2.82843 0
    endloop
  endfacet
  facet normal -0.55557 -0.83147 0
    outer loop
      vertex -8.46927 3.69552 2
      vertex -8.46927 3.69552 0
      vertex -7.17157 2.82843 0
    endloop
  endfacet
  facet normal -0.998533 -0.0541396 -6.63019e-18
    outer loop
      vertex 12.5 1.53081e-16 0
      vertex 12.5 -4.59243e-16 5
      vertex 12.4853 0.270298 0
    endloop
  endfacet
  facet normal -0.998533 -0.0541396 0
    outer loop
      vertex 12.5 -4.59243e-16 5
      vertex 12.4853 0.270298 5
      vertex 12.4853 0.270298 0
    endloop
  endfacet
  facet normal -0.986826 -0.161782 0
    outer loop
      vertex 12.4853 0.270298 0
      vertex 12.4853 0.270298 5
      vertex 12.4416 0.537426 0
    endloop
  endfacet
  facet normal -0.986826 -0.161782 0
    outer loop
      vertex 12.4853 0.270298 5
      vertex 12.4416 0.537426 5
      vertex 12.4416 0.537426 0
    endloop
  endfacet
  facet normal -0.96355 -0.267529 0
    outer loop
      vertex 12.4416 0.537426 0
      vertex 12.4416 0.537426 5
      vertex 12.3691 0.798254 0
    endloop
  endfacet
  facet normal -0.96355 -0.267529 0
    outer loop
      vertex 12.4416 0.537426 5
      vertex 12.3691 0.798254 5
      vertex 12.3691 0.798254 0
    endloop
  endfacet
  facet normal -0.928977 -0.370138 0
    outer loop
      vertex 12.3691 0.798254 0
      vertex 12.3691 0.798254 5
      vertex 12.2689 1.04972 0
    endloop
  endfacet
  facet normal -0.928977 -0.370138 0
    outer loop
      vertex 12.3691 0.798254 5
      vertex 12.2689 1.04972 5
      vertex 12.2689 1.04972 0
    endloop
  endfacet
  facet normal -0.883513 -0.468406 0
    outer loop
      vertex 12.2689 1.04972 0
      vertex 12.2689 1.04972 5
      vertex 12.1421 1.28888 0
    endloop
  endfacet
  facet normal -0.883513 -0.468406 0
    outer loop
      vertex 12.2689 1.04972 5
      vertex 12.1421 1.28888 5
      vertex 12.1421 1.28888 0
    endloop
  endfacet
  facet normal -0.827688 -0.561189 0
    outer loop
      vertex 12.1421 1.28888 0
      vertex 12.1421 1.28888 5
      vertex 11.9902 1.51294 0
    endloop
  endfacet
  facet normal -0.827688 -0.561189 0
    outer loop
      vertex 12.1421 1.28888 5
      vertex 11.9902 1.51294 5
      vertex 11.9902 1.51294 0
    endloop
  endfacet
  facet normal -0.762163 -0.647385 0
    outer loop
      vertex 11.9902 1.51294 0
      vertex 11.9902 1.51294 5
      vertex 11.815 1.71925 0
    endloop
  endfacet
  facet normal -0.762163 -0.647385 0
    outer loop
      vertex 11.9902 1.51294 5
      vertex 11.815 1.71925 5
      vertex 11.815 1.71925 0
    endloop
  endfacet
  facet normal -0.6877 -0.725995 0
    outer loop
      vertex 11.815 1.71925 0
      vertex 11.815 1.71925 5
      vertex 11.6185 1.90541 0
    endloop
  endfacet
  facet normal -0.6877 -0.725995 0
    outer loop
      vertex 11.815 1.71925 5
      vertex 11.6185 1.90541 5
      vertex 11.6185 1.90541 0
    endloop
  endfacet
  facet normal -0.605173 -0.796094 0
    outer loop
      vertex 11.6185 1.90541 0
      vertex 11.6185 1.90541 5
      vertex 11.403 2.06922 0
    endloop
  endfacet
  facet normal -0.605173 -0.796094 0
    outer loop
      vertex 11.6185 1.90541 5
      vertex 11.403 2.06922 5
      vertex 11.403 2.06922 0
    endloop
  endfacet
  facet normal -0.515555 -0.856857 0
    outer loop
      vertex 11.403 2.06922 0
      vertex 11.403 2.06922 5
      vertex 11.171 2.20878 0
    endloop
  endfacet
  facet normal -0.515555 -0.856857 0
    outer loop
      vertex 11.403 2.06922 5
      vertex 11.171 2.20878 5
      vertex 11.171 2.20878 0
    endloop
  endfacet
  facet normal -0.419889 -0.907576 0
    outer loop
      vertex 11.171 2.20878 0
      vertex 11.171 2.20878 5
      vertex 10.9253 2.32244 0
    endloop
  endfacet
  facet normal -0.419889 -0.907576 0
    outer loop
      vertex 11.171 2.20878 5
      vertex 10.9253 2.32244 5
      vertex 10.9253 2.32244 0
    endloop
  endfacet
  facet normal -0.319301 -0.947653 0
    outer loop
      vertex 10.9253 2.32244 0
      vertex 10.9253 2.32244 5
      vertex 10.6688 2.40887 0
    endloop
  endfacet
  facet normal -0.319301 -0.947653 0
    outer loop
      vertex 10.9253 2.32244 5
      vertex 10.6688 2.40887 5
      vertex 10.6688 2.40887 0
    endloop
  endfacet
  facet normal -0.21497 -0.976621 0
    outer loop
      vertex 10.6688 2.40887 0
      vertex 10.6688 2.40887 5
      vertex 10.4045 2.46707 0
    endloop
  endfacet
  facet normal -0.21497 -0.976621 0
    outer loop
      vertex 10.6688 2.40887 5
      vertex 10.4045 2.46707 5
      vertex 10.4045 2.46707 0
    endloop
  endfacet
  facet normal -0.108119 -0.994138 0
    outer loop
      vertex 10.4045 2.46707 0
      vertex 10.4045 2.46707 5
      vertex 10.1353 2.49633 0
    endloop
  endfacet
  facet normal -0.108119 -0.994138 0
    outer loop
      vertex 10.4045 2.46707 5
      vertex 10.1353 2.49633 5
      vertex 10.1353 2.49633 0
    endloop
  endfacet
  facet normal 0 -1 0
    outer loop
      vertex 10.1353 2.49633 0
      vertex 10.1353 2.49633 5
      vertex 9.86465 2.49633 0
    endloop
  endfacet
  facet normal 0 -1 0
    outer loop
      vertex 10.1353 2.49633 5
      vertex 9.86465 2.49633 5
      vertex 9.86465 2.49633 0
    endloop
  endfacet
  facet normal 0.108119 -0.994138 0
    outer loop
      vertex 9.86465 2.49633 0
      vertex 9.86465 2.49633 5
      vertex 9.59555 2.46707 0
    endloop
  endfacet
  facet normal 0.108119 -0.994138 0
    outer loop
      vertex 9.86465 2.49633 5
      vertex 9.59555 2.46707 5
      vertex 9.59555 2.46707 0
    endloop
  endfacet
  facet normal 0.21497 -0.976621 0
    outer loop
      vertex 9.59555 2.46707 0
      vertex 9.59555 2.46707 5
      vertex 9.33118 2.40887 0
    endloop
  endfacet
  facet normal 0.21497 -0.976621 0
    outer loop
      vertex 9.59555 2.46707 5
      vertex 9.33118 2.40887 5
      vertex 9.33118 2.40887 0
    endloop
  endfacet
  facet normal 0.319301 -0.947653 0
    outer loop
      vertex 9.33118 2.40887 0
      vertex 9.33118 2.40887 5
      vertex 9.07465 2.32244 0
    endloop
  endfacet
  facet normal 0.319301 -0.947653 0
    outer loop
      vertex 9.33118 2.40887 5
      vertex 9.07465 2.32244 5
      vertex 9.07465 2.32244 0
    endloop
  endfacet
  facet normal 0.41989 -0.907575 0
    outer loop
      vertex 9.07465 2.32244 0
      vertex 9.07465 2.32244 5
      vertex 8.82898 2.20878 0
    endloop
  endfacet
  facet normal 0.41989 -0.907575 0
    outer loop
      vertex 9.07465 2.32244 5
      vertex 8.82898 2.20878 5
      vertex 8.82898 2.20878 0
    endloop
  endfacet
  facet normal 0.515553 -0.856858 0
    outer loop
      vertex 8.82898 2.20878 0
      vertex 8.82898 2.20878 5
      vertex 8.59703 2.06922 0
    endloop
  endfacet
  facet normal 0.515553 -0.856858 0
    outer loop
      vertex 8.82898 2.20878 5
      vertex 8.59703 2.06922 5
      vertex 8.59703 2.06922 0
    endloop
  endfacet
  facet normal 0.605175 -0.796093 0
    outer loop
      vertex 8.59703 2.06922 0
      vertex 8.59703 2.06922 5
      vertex 8.38153 1.90541 0
    endloop
  endfacet
  facet normal 0.605175 -0.796093 0
    outer loop
      vertex 8.59703 2.06922 5
      vertex 8.38153 1.90541 5
      vertex 8.38153 1.90541 0
    endloop
  endfacet
  facet normal 0.6877 -0.725995 0
    outer loop
      vertex 8.38153 1.90541 0
      vertex 8.38153 1.90541 5
      vertex 8.18501 1.71925 0
    endloop
  endfacet
  facet normal 0.6877 -0.725995 0
    outer loop
      vertex 8.38153 1.90541 5
      vertex 8.18501 1.71925 5
      vertex 8.18501 1.71925 0
    endloop
  endfacet
  facet normal 0.762162 -0.647387 0
    outer loop
      vertex 8.18501 1.71925 0
      vertex 8.18501 1.71925 5
      vertex 8.00977 1.51294 0
    endloop
  endfacet
  facet normal 0.762162 -0.647387 0
    outer loop
      vertex 8.18501 1.71925 5
      vertex 8.00977 1.51294 5
      vertex 8.00977 1.51294 0
    endloop
  endfacet
  facet normal 0.82769 -0.561186 0
    outer loop
      vertex 8.00977 1.51294 0
      vertex 8.00977 1.51294 5
      vertex 7.85786 1.28888 0
    endloop
  endfacet
  facet normal 0.82769 -0.561186 0
    outer loop
      vertex 8.00977 1.51294 5
      vertex 7.85786 1.28888 5
      vertex 7.85786 1.28888 0
    endloop
  endfacet
  facet normal 0.883512 -0.468409 0
    outer loop
      vertex 7.85786 1.28888 0
      vertex 7.85786 1.28888 5
      vertex 7.73106 1.04972 0
    endloop
  endfacet
  facet normal 0.883512 -0.468409 0
    outer loop
      vertex 7.85786 1.28888 5
      vertex 7.73106 1.04972 5
      vertex 7.73106 1.04972 0
    endloop
  endfacet
  facet normal 0.928977 -0.370138 0
    outer loop
      vertex 7.73106 1.04972 0
      vertex 7.73106 1.04972 5
      vertex 7.63087 0.798254 0
    endloop
  endfacet
  facet normal 0.928977 -0.370138 0
    outer loop
      vertex 7.73106 1.04972 5
      vertex 7.63087 0.798254 5
      vertex 7.63087 0.798254 0
    endloop
  endfacet
  facet normal 0.96355 -0.267528 0
    outer loop
      vertex 7.63087 0.798254 0
      vertex 7.63087 0.798254 5
      vertex 7.55845 0.537426 0
    endloop
  endfacet
  facet normal 0.96355 -0.267528 0
    outer loop
      vertex 7.63087 0.798254 5
      vertex 7.55845 0.537426 5
      vertex 7.55845 0.537426 0
    endloop
  endfacet
  facet normal 0.986826 -0.161782 0
    outer loop
      vertex 7.55845 0.537426 0
      vertex 7.55845 0.537426 5
      vertex 7.51466 0.270298 0
    endloop
  endfacet
  facet normal 0.986826 -0.161782 0
    outer loop
      vertex 7.55845 0.537426 5
      vertex 7.51466 0.270298 5
      vertex 7.51466 0.270298 0
    endloop
  endfacet
  facet normal 0.998533 -0.0541396 0
    outer loop
      vertex 7.51466 0.270298 0
      vertex 7.51466 0.270298 5
      vertex 7.5 4.59243e-16 0
    endloop
  endfacet
  facet normal 0.998533 -0.0541396 0
    outer loop
      vertex 7.51466 0.270298 5
      vertex 7.5 4.59243e-16 5
      vertex 7.5 4.59243e-16 0
    endloop
  endfacet
  facet normal 0.998533 0.0541396 0
    outer loop
      vertex 7.5 4.59243e-16 0
      vertex 7.5 4.59243e-16 5
      vertex 7.51466 -0.270298 0
    endloop
  endfacet
  facet normal 0.998533 0.0541396 0
    outer loop
      vertex 7.5 4.59243e-16 5
      vertex 7.51466 -0.270298 5
      vertex 7.51466 -0.270298 0
    endloop
  endfacet
  facet normal 0.986826 0.161782 0
    outer loop
      vertex 7.51466 -0.270298 0
      vertex 7.51466 -0.270298 5
      vertex 7.55845 -0.537426 0
    endloop
  endfacet
  facet normal 0.986826 0.161782 0
    outer loop
      vertex 7.51466 -0.270298 5
      vertex 7.55845 -0.537426 5
      vertex 7.55845 -0.537426 0
    endloop
  endfacet
  facet normal 0.96355 0.267528 0
    outer loop
      vertex 7.55845 -0.537426 0
      vertex 7.55845 -0.537426 5
      vertex 7.63087 -0.798254 0
    endloop
  endfacet
  facet normal 0.96355 0.267528 0
    outer loop
      vertex 7.55845 -0.537426 5
      vertex 7.63087 -0.798254 5
      vertex 7.63087 -0.798254 0
    endloop
  endfacet
  facet normal 0.928977 0.370138 0
    outer loop
      vertex 7.63087 -0.798254 0
      vertex 7.63087 -0.798254 5
      vertex 7.73106 -1.04972 0
    endloop
  endfacet
  facet normal 0.928977 0.370138 0
    outer loop
      vertex 7.63087 -0.798254 5
      vertex 7.73106 -1.04972 5
      vertex 7.73106 -1.04972 0
    endloop
  endfacet
  facet normal 0.883512 0.468409 0
    outer loop
      vertex 7.73106 -1.04972 0
      vertex 7.73106 -1.04972 5
      vertex 7.85786 -1.28888 0
    endloop
  endfacet
  facet normal 0.883512 0.468409 0
    outer loop
      vertex 7.73106 -1.04972 5
      vertex 7.85786 -1.28888 5
      vertex 7.85786 -1.28888 0
    endloop
  endfacet
  facet normal 0.82769 0.561186 0
    outer loop
      vertex 7.85786 -1.28888 0
      vertex 7.85786 -1.28888 5
      vertex 8.00977 -1.51294 0
    endloop
  endfacet
  facet normal 0.82769 0.561186 0
    outer loop
      vertex 7.85786 -1.28888 5
      vertex 8.00977 -1.51294 5
      vertex 8.00977 -1.51294 0
    endloop
  endfacet
  facet normal 0.762162 0.647387 0
    outer loop
      vertex 8.00977 -1.51294 0
      vertex 8.00977 -1.51294 5
      vertex 8.18501 -1.71925 0
    endloop
  endfacet
  facet normal 0.762162 0.647387 0
    outer loop
      vertex 8.00977 -1.51294 5
      vertex 8.18501 -1.71925 5
      vertex 8.18501 -1.71925 0
    endloop
  endfacet
  facet normal 0.6877 0.725995 0
    outer loop
      vertex 8.18501 -1.71925 0
      vertex 8.18501 -1.71925 5
      vertex 8.38153 -1.90541 0
    endloop
  endfacet
  facet normal 0.6877 0.725995 0
    outer loop
      vertex 8.18501 -1.71925 5
      vertex 8.38153 -1.90541 5
      vertex 8.38153 -1.90541 0
    endloop
  endfacet
  facet normal 0.605175 0.796093 0
    outer loop
      vertex 8.38153 -1.90541 0
      vertex 8.38153 -1.90541 5
      vertex 8.59703 -2.06922 0
    endloop
  endfacet
  facet normal 0.605175 0.796093 0
    outer loop
      vertex 8.38153 -1.90541 5
      vertex 8.59703 -2.06922 5
      vertex 8.59703 -2.06922 0
    endloop
  endfacet
  facet normal 0.515553 0.856858 0
    outer loop
      vertex 8.59703 -2.06922 0
      vertex 8.59703 -2.06922 5
      vertex 8.82898 -2.20878 0
    endloop
  endfacet
  facet normal 0.515553 0.856858 0
    outer loop
      vertex 8.59703 -2.06922 5
      vertex 8.82898 -2.20878 5
      vertex 8.82898 -2.20878 0
    endloop
  endfacet
  facet normal 0.41989 0.907575 0
    outer loop
      vertex 8.82898 -2.20878 0
      vertex 8.82898 -2.20878 5
      vertex 9.07465 -2.32244 0
    endloop
  endfacet
  facet normal 0.41989 0.907575 0
    outer loop
      vertex 8.82898 -2.20878 5
      vertex 9.07465 -2.32244 5
      vertex 9.07465 -2.32244 0
    endloop
  endfacet
  facet normal 0.319301 0.947653 0
    outer loop
      vertex 9.07465 -2.32244 0
      vertex 9.07465 -2.32244 5
      vertex 9.33118 -2.40887 0
    endloop
  endfacet
  facet normal 0.319301 0.947653 0
    outer loop
      vertex 9.07465 -2.32244 5
      vertex 9.33118 -2.40887 5
      vertex 9.33118 -2.40887 0
    endloop
  endfacet
  facet normal 0.21497 0.976621 0
    outer loop
      vertex 9.33118 -2.40887 0
      vertex 9.33118 -2.40887 5
      vertex 9.59555 -2.46707 0
    endloop
  endfacet
  facet normal 0.21497 0.976621 0
    outer loop
      vertex 9.33118 -2.40887 5
      vertex 9.59555 -2.46707 5
      vertex 9.59555 -2.46707 0
    endloop
  endfacet
  facet normal 0.108119 0.994138 0
    outer loop
      vertex 9.59555 -2.46707 0
      vertex 9.59555 -2.46707 5
      vertex 9.86465 -2.49633 0
    endloop
  endfacet
  facet normal 0.108119 0.994138 0
    outer loop
      vertex 9.59555 -2.46707 5
      vertex 9.86465 -2.49633 5
      vertex 9.86465 -2.49633 0
    endloop
  endfacet
  facet normal 0 1 0
    outer loop
      vertex 9.86465 -2.49633 0
      vertex 9.86465 -2.49633 5
      vertex 10.1353 -2.49633 0
    endloop
  endfacet
  facet normal 0 1 0
    outer loop
      vertex 9.86465 -2.49633 5
      vertex 10.1353 -2.49633 5
      vertex 10.1353 -2.49633 0
    endloop
  endfacet
  facet normal -0.108119 0.994138 0
    outer loop
      vertex 10.1353 -2.49633 0
      vertex 10.1353 -2.49633 5
      vertex 10.4045 -2.46707 0
    endloop
  endfacet
  facet normal -0.108119 0.994138 0
    outer loop
      vertex 10.1353 -2.49633 5
      vertex 10.4045 -2.46707 5
      vertex 10.4045 -2.46707 0
    endloop
  endfacet
  facet normal -0.21497 0.976621 0
    outer loop
      vertex 10.4045 -2.46707 0
      vertex 10.4045 -2.46707 5
      vertex 10.6688 -2.40887 0
    endloop
  endfacet
  facet normal -0.21497 0.976621 0
    outer loop
      vertex 10.4045 -2.46707 5
      vertex 10.6688 -2.40887 5
      vertex 10.6688 -2.40887 0
    endloop
  endfacet
  facet normal -0.319301 0.947653 0
    outer loop
      vertex 10.6688 -2.40887 0
      vertex 10.6688 -2.40887 5
      vertex 10.9253 -2.32244 0
    endloop
  endfacet
  facet normal -0.319301 0.947653 0
    outer loop
      vertex 10.6688 -2.40887 5
      vertex 10.9253 -2.32244 5
      vertex 10.9253 -2.32244 0
    endloop
  endfacet
  facet normal -0.419889 0.907576 0
    outer loop
      vertex 10.9253 -2.32244 0
      vertex 10.9253 -2.32244 5
      vertex 11.171 -2.20878 0
    endloop
  endfacet
  facet normal -0.419889 0.907576 0
    outer loop
      vertex 10.9253 -2.32244 5
      vertex 11.171 -2.20878 5
      vertex 11.171 -2.20878 0
    endloop
  endfacet
  facet normal -0.515555 0.856857 0
    outer loop
      vertex 11.171 -2.20878 0
      vertex 11.171 -2.20878 5
      vertex 11.403 -2.06922 0
    endloop
  endfacet
  facet normal -0.515555 0.856857 0
    outer loop
      vertex 11.171 -2.20878 5
      vertex 11.403 -2.06922 5
      vertex 11.403 -2.06922 0
    endloop
  endfacet
  facet normal -0.605173 0.796094 0
    outer loop
      vertex 11.403 -2.06922 0
      vertex 11.403 -2.06922 5
      vertex 11.6185 -1.90541 0
    endloop
  endfacet
  facet normal -0.605173 0.796094 0
    outer loop
      vertex 11.403 -2.06922 5
      vertex 11.6185 -1.90541 5
      vertex 11.6185 -1.90541 0
    endloop
  endfacet
  facet normal -0.6877 0.725995 0
    outer loop
      vertex 11.6185 -1.90541 0
      vertex 11.6185 -1.90541 5
      vertex 11.815 -1.71925 0
    endloop
  endfacet
  facet normal -0.6877 0.725995 0
    outer loop
      vertex 11.6185 -1.90541 5
      vertex 11.815 -1.71925 5
      vertex 11.815 -1.71925 0
    endloop
  endfacet
  facet normal -0.762163 0.647385 0
    outer loop
      vertex 11.815 -1.71925 0
      vertex 11.815 -1.71925 5
      vertex 11.9902 -1.51294 0
    endloop
  endfacet
  facet normal -0.762163 0.647385 0
    outer loop
      vertex 11.815 -1.71925 5
      vertex 11.9902 -1.51294 5
      vertex 11.9902 -1.51294 0
    endloop
  endfacet
  facet normal -0.827688 0.561189 0
    outer loop
      vertex 11.9902 -1.51294 0
      vertex 11.9902 -1.51294 5
      vertex 12.1421 -1.28888 0
    endloop
  endfacet
  facet normal -0.827688 0.561189 0
    outer loop
      vertex 11.9902 -1.51294 5
      vertex 12.1421 -1.28888 5
      vertex 12.1421 -1.28888 0
    endloop
  endfacet
  facet normal -0.883513 0.468406 0
    outer loop
      vertex 12.1421 -1.28888 0
      vertex 12.1421 -1.28888 5
      vertex 12.2689 -1.04972 0
    endloop
  endfacet
  facet normal -0.883513 0.468406 0
    outer loop
      vertex 12.1421 -1.28888 5
      vertex 12.2689 -1.04972 5
      vertex 12.2689 -1.04972 0
    endloop
  endfacet
  facet normal -0.928977 0.370138 0
    outer loop
      vertex 12.2689 -1.04972 0
      vertex 12.2689 -1.04972 5
      vertex 12.3691 -0.798254 0
    endloop
  endfacet
  facet normal -0.928977 0.370138 0
    outer loop
      vertex 12.2689 -1.04972 5
      vertex 12.3691 -0.798254 5
      vertex 12.3691 -0.798254 0
    endloop
  endfacet
  facet normal -0.96355 0.267529 0
    outer loop
      vertex 12.3691 -0.798254 0
      vertex 12.3691 -0.798254 5
      vertex 12.4416 -0.537426 0
    endloop
  endfacet
  facet normal -0.96355 0.267529 0
    outer loop
      vertex 12.3691 -0.798254 5
      vertex 12.4416 -0.537426 5
      vertex 12.4416 -0.537426 0
    endloop
  endfacet
  facet normal -0.986826 0.161782 0
    outer loop
      vertex 12.4416 -0.537426 0
      vertex 12.4416 -0.537426 5
      vertex 12.4853 -0.270298 0
    endloop
  endfacet
  facet normal -0.986826 0.161782 0
    outer loop
      vertex 12.4416 -0.537426 5
      vertex 12.4853 -0.270298 5
      vertex 12.4853 -0.270298 0
    endloop
  endfacet
  facet normal -0.998533 0.0541396 0
    outer loop
      vertex 12.4853 -0.270298 0
      vertex 12.4853 -0.270298 5
      vertex 12.5 1.53081e-16 0
    endloop
  endfacet
  facet normal -0.998533 0.0541396 6.7227e-18
    outer loop
      vertex 12.4853 -0.270298 5
      vertex 12.5 -4.59243e-16 5
      vertex 12.5 1.53081e-16 0
    endloop
  endfacet
  facet normal 0.980785 -0.19509 0
    outer loop
      vertex 13.8 -1.73472e-15 2
      vertex 13.8 -1.73472e-15 5
      vertex 13.5107 -1.4542 2
    endloop
  endfacet
  facet normal 0.980785 -0.19509 0
    outer loop
      vertex 13.8 -1.73472e-15 5
      vertex 13.5107 -1.4542 5
      vertex 13.5107 -1.4542 2
    endloop
  endfacet
  facet normal -0.83147 -0.55557 0
    outer loop
      vertex -6.30448 1.53073 2
      vertex -7.17157 2.82843 2
      vertex -6.30448 1.53073 0
    endloop
  endfacet
  facet normal -0.83147 -0.55557 0
    outer loop
      vertex -7.17157 2.82843 2
      vertex -7.17157 2.82843 0
      vertex -6.30448 1.53073 0
    endloop
  endfacet
  facet normal 0 0 1
    outer loop
      vertex 8.59703 -2.06922 5
      vertex 8.38153 -1.90541 5
      vertex 7.31299 -2.68701 5
    endloop
  endfacet
  facet normal 0 0 1
    outer loop
      vertex 13.8 -1.73472e-15 5
      vertex 12.5 -4.59243e-16 5
      vertex 12.4853 -0.270298 5
    endloop
  endfacet
  facet normal 0 0 1
    outer loop
      vertex 12.3691 -0.798254 5
      vertex 12.2689 -1.04972 5
      vertex 13.5107 -1.4542 5
    endloop
  endfacet
  facet normal 0 0 1
    outer loop
      vertex 12.2689 -1.04972 5
      vertex 12.1421 -1.28888 5
      vertex 13.5107 -1.4542 5
    endloop
  endfacet
  facet normal 0 0 1
    outer loop
      vertex 13.5107 -1.4542 5
      vertex 12.1421 -1.28888 5
      vertex 12.687 -2.68701 5
    endloop
  endfacet
  facet normal 0 0 1
    outer loop
      vertex 12.1421 -1.28888 5
      vertex 11.9902 -1.51294 5
      vertex 12.687 -2.68701 5
    endloop
  endfacet
  facet normal 0 0 1
    outer loop
      vertex 12.687 -2.68701 5
      vertex 11.9902 -1.51294 5
      vertex 11.815 -1.71925 5
    endloop
  endfacet
  facet normal 0 0 1
    outer loop
      vertex 8.38153 -1.90541 5
      vertex 8.18501 -1.71925 5
      vertex 7.31299 -2.68701 5
    endloop
  endfacet
  facet normal 0 0 1
    outer loop
      vertex 8.18501 -1.71925 5
      vertex 8.00977 -1.51294 5
      vertex 7.31299 -2.68701 5
    endloop
  endfacet
  facet normal 0 0 1
    outer loop
      vertex 7.31299 -2.68701 5
      vertex 8.00977 -1.51294 5
      vertex 6.48926 -1.4542 5
    endloop
  endfacet
  facet normal 0 0 1
    outer loop
      vertex 8.00977 -1.51294 5
      vertex 7.85786 -1.28888 5
      vertex 6.48926 -1.4542 5
    endloop
  endfacet
  facet normal 0 0 1
    outer loop
      vertex 6.48926 -1.4542 5
      vertex 7.85786 -1.28888 5
      vertex 7.73106 -1.04972 5
    endloop
  endfacet
  facet normal 0 0 1
    outer loop
      vertex 13.8 -1.73472e-15 5
      vertex 12.4853 -0.270298 5
      vertex 13.5107 -1.4542 5
    endloop
  endfacet
  facet normal 0 0 1
    outer loop
      vertex 12.4853 -0.270298 5
      vertex 12.4416 -0.537426 5
      vertex 13.5107 -1.4542 5
    endloop
  endfacet
  facet normal 0 0 1
    outer loop
      vertex 13.5107 -1.4542 5
      vertex 12.4416 -0.537426 5
      vertex 12.3691 -0.798254 5
    endloop
  endfacet
  facet normal 0 0 1
    outer loop
      vertex 11.815 -1.71925 5
      vertex 11.6185 -1.90541 5
      vertex 12.687 -2.68701 5
    endloop
  endfacet
  facet normal 0 0 1
    outer loop
      vertex 11.6185 -1.90541 5
      vertex 11.403 -2.06922 5
      vertex 12.687 -2.68701 5
    endloop
  endfacet
  facet normal 0 0 1
    outer loop
      vertex 12.687 -2.68701 5
      vertex 11.403 -2.06922 5
      vertex 11.4542 -3.51074 5
    endloop
  endfacet
  facet normal 0 0 1
    outer loop
      vertex 11.403 -2.06922 5
      vertex 11.171 -2.20878 5
      vertex 11.4542 -3.51074 5
    endloop
  endfacet
  facet normal 0 0 1
    outer loop
      vertex 8.59703 -2.06922 5
      vertex 7.31299 -2.68701 5
      vertex 8.82898 -2.20878 5
    endloop
  endfacet
  facet normal 0 0 1
    outer loop
      vertex 7.31299 -2.68701 5
      vertex 8.5458 -3.51074 5
      vertex 8.82898 -2.20878 5
    endloop
  endfacet
  facet normal 0 0 1
    outer loop
      vertex 8.82898 -2.20878 5
      vertex 8.5458 -3.51074 5
      vertex 9.07465 -2.32244 5
    endloop
  endfacet
  facet normal 0 0 1
    outer loop
      vertex 7.73106 -1.04972 5
      vertex 7.63087 -0.798254 5
      vertex 6.48926 -1.4542 5
    endloop
  endfacet
  facet normal 0 0 1
    outer loop
      vertex 7.63087 -0.798254 5
      vertex 7.55845 -0.537426 5
      vertex 6.48926 -1.4542 5
    endloop
  endfacet
  facet normal 0 0 1
    outer loop
      vertex 6.48926 -1.4542 5
      vertex 7.55845 -0.537426 5
      vertex 6.2 -1.84314e-15 5
    endloop
  endfacet
  facet normal 0 0 1
    outer loop
      vertex 7.55845 -0.537426 5
      vertex 7.51466 -0.270298 5
      vertex 6.2 -1.84314e-15 5
    endloop
  endfacet
  facet normal 0 0 1
    outer loop
      vertex 12.2689 1.04972 5
      vertex 12.3691 0.798254 5
      vertex 13.5107 1.4542 5
    endloop
  endfacet
  facet normal 0 0 1
    outer loop
      vertex 12.3691 0.798254 5
      vertex 12.4416 0.537426 5
      vertex 13.5107 1.4542 5
    endloop
  endfacet
  facet normal 0 0 1
    outer loop
      vertex 13.5107 1.4542 5
      vertex 12.4416 0.537426 5
      vertex 13.8 -1.73472e-15 5
    endloop
  endfacet
  facet normal 0 0 1
    outer loop
      vertex 12.4416 0.537426 5
      vertex 12.4853 0.270298 5
      vertex 13.8 -1.73472e-15 5
    endloop
  endfacet
  facet normal 0 0 1
    outer loop
      vertex 13.8 -1.73472e-15 5
      vertex 12.4853 0.270298 5
      vertex 12.5 -4.59243e-16 5
    endloop
  endfacet
  facet normal 0 0 1
    outer loop
      vertex 7.51466 -0.270298 5
      vertex 7.5 4.59243e-16 5
      vertex 6.2 -1.84314e-15 5
    endloop
  endfacet
  facet normal 0 0 1
    outer loop
      vertex 7.5 4.59243e-16 5
      vertex 7.51466 0.270298 5
      vertex 6.2 -1.84314e-15 5
    endloop
  endfacet
  facet normal 0 0 1
    outer loop
      vertex 6.2 -1.84314e-15 5
      vertex 7.51466 0.270298 5
      vertex 6.48926 1.4542 5
    endloop
  endfacet
  facet normal 0 0 1
    outer loop
      vertex 7.51466 0.270298 5
      vertex 7.55845 0.537426 5
      vertex 6.48926 1.4542 5
    endloop
  endfacet
  facet normal 0 0 1
    outer loop
      vertex 6.48926 1.4542 5
      vertex 7.55845 0.537426 5
      vertex 7.63087 0.798254 5
    endloop
  endfacet
  facet normal 0 0 1
    outer loop
      vertex 11.171 -2.20878 5
      vertex 10.9253 -2.32244 5
      vertex 11.4542 -3.51074 5
    endloop
  endfacet
  facet normal 0 0 1
    outer loop
      vertex 10.9253 -2.32244 5
      vertex 10.6688 -2.40887 5
      vertex 11.4542 -3.51074 5
    endloop
  endfacet
  facet normal 0 0 1
    outer loop
      vertex 11.4542 -3.51074 5
      vertex 10.6688 -2.40887 5
      vertex 10 -3.8 5
    endloop
  endfacet
  facet normal 0 0 1
    outer loop
      vertex 10.6688 -2.40887 5
      vertex 10.4045 -2.46707 5
      vertex 10 -3.8 5
    endloop
  endfacet
  facet normal 0 0 1
    outer loop
      vertex 10 -3.8 5
      vertex 10.4045 -2.46707 5
      vertex 10.1353 -2.49633 5
    endloop
  endfacet
  facet normal 0 0 1
    outer loop
      vertex 10.1353 -2.49633 5
      vertex 9.86465 -2.49633 5
      vertex 10 -3.8 5
    endloop
  endfacet
  facet normal 0 0 1
    outer loop
      vertex 9.86465 -2.49633 5
      vertex 9.59555 -2.46707 5
      vertex 10 -3.8 5
    endloop
  endfacet
  facet normal 0 0 1
    outer loop
      vertex 10 -3.8 5
      vertex 9.59555 -2.46707 5
      vertex 8.5458 -3.51074 5
    endloop
  endfacet
  facet normal 0 0 1
    outer loop
      vertex 9.59555 -2.46707 5
      vertex 9.33118 -2.40887 5
      vertex 8.5458 -3.51074 5
    endloop
  endfacet
  facet normal 0 0 1
    outer loop
      vertex 8.5458 -3.51074 5
      vertex 9.33118 -2.40887 5
      vertex 9.07465 -2.32244 5
    endloop
  endfacet
  facet normal 0 0 1
    outer loop
      vertex 7.63087 0.798254 5
      vertex 7.73106 1.04972 5
      vertex 6.48926 1.4542 5
    endloop
  endfacet
  facet normal 0 0 1
    outer loop
      vertex 7.73106 1.04972 5
      vertex 7.85786 1.28888 5
      vertex 6.48926 1.4542 5
    endloop
  endfacet
  facet normal 0 0 1
    outer loop
      vertex 6.48926 1.4542 5
      vertex 7.85786 1.28888 5
      vertex 7.31299 2.68701 5
    endloop
  endfacet
  facet normal 0 0 1
    outer loop
      vertex 7.85786 1.28888 5
      vertex 8.00977 1.51294 5
      vertex 7.31299 2.68701 5
    endloop
  endfacet
  facet normal 0 0 1
    outer loop
      vertex 7.31299 2.68701 5
      vertex 8.00977 1.51294 5
      vertex 8.18501 1.71925 5
    endloop
  endfacet
  facet normal 0 0 1
    outer loop
      vertex 8.18501 1.71925 5
      vertex 8.38153 1.90541 5
      vertex 7.31299 2.68701 5
    endloop
  endfacet
  facet normal 0 0 1
    outer loop
      vertex 8.38153 1.90541 5
      vertex 8.59703 2.06922 5
      vertex 7.31299 2.68701 5
    endloop
  endfacet
  facet normal 0 0 1
    outer loop
      vertex 7.31299 2.68701 5
      vertex 8.59703 2.06922 5
      vertex 8.5458 3.51074 5
    endloop
  endfacet
  facet normal 0 0 1
    outer loop
      vertex 8.59703 2.06922 5
      vertex 8.82898 2.20878 5
      vertex 8.5458 3.51074 5
    endloop
  endfacet
  facet normal 0 0 1
    outer loop
      vertex 8.82898 2.20878 5
      vertex 9.07465 2.32244 5
      vertex 8.5458 3.51074 5
    endloop
  endfacet
  facet normal 0 0 1
    outer loop
      vertex 9.07465 2.32244 5
      vertex 9.33118 2.40887 5
      vertex 8.5458 3.51074 5
    endloop
  endfacet
  facet normal 0 0 1
    outer loop
      vertex 8.5458 3.51074 5
      vertex 9.33118 2.40887 5
      vertex 10 3.8 5
    endloop
  endfacet
  facet normal 0 0 1
    outer loop
      vertex 9.33118 2.40887 5
      vertex 9.59555 2.46707 5
      vertex 10 3.8 5
    endloop
  endfacet
  facet normal 0 0 1
    outer loop
      vertex 10 3.8 5
      vertex 9.59555 2.46707 5
      vertex 9.86465 2.49633 5
    endloop
  endfacet
  facet normal 0 0 1
    outer loop
      vertex 11.6185 1.90541 5
      vertex 11.815 1.71925 5
      vertex 12.687 2.68701 5
    endloop
  endfacet
  facet normal 0 0 1
    outer loop
      vertex 11.815 1.71925 5
      vertex 11.9902 1.51294 5
      vertex 12.687 2.68701 5
    endloop
  endfacet
  facet normal 0 0 1
    outer loop
      vertex 12.687 2.68701 5
      vertex 11.9902 1.51294 5
      vertex 13.5107 1.4542 5
    endloop
  endfacet
  facet normal 0 0 1
    outer loop
      vertex 11.9902 1.51294 5
      vertex 12.1421 1.28888 5
      vertex 13.5107 1.4542 5
    endloop
  endfacet
  facet normal 0 0 1
    outer loop
      vertex 13.5107 1.4542 5
      vertex 12.1421 1.28888 5
      vertex 12.2689 1.04972 5
    endloop
  endfacet
  facet normal 0 0 1
    outer loop
      vertex 10.6688 2.40887 5
      vertex 11.4542 3.51074 5
      vertex 10.4045 2.46707 5
    endloop
  endfacet
  facet normal 0 0 1
    outer loop
      vertex 11.4542 3.51074 5
      vertex 10 3.8 5
      vertex 10.4045 2.46707 5
    endloop
  endfacet
  facet normal 0 0 1
    outer loop
      vertex 10.4045 2.46707 5
      vertex 10 3.8 5
      vertex 10.1353 2.49633 5
    endloop
  endfacet
  facet normal 0 0 1
    outer loop
      vertex 10 3.8 5
      vertex 9.86465 2.49633 5
      vertex 10.1353 2.49633 5
    endloop
  endfacet
  facet normal 0 0 1
    outer loop
      vertex 10.6688 2.40887 5
      vertex 10.9253 2.32244 5
      vertex 11.4542 3.51074 5
    endloop
  endfacet
  facet normal 0 0 1
    outer loop
      vertex 10.9253 2.32244 5
      vertex 11.171 2.20878 5
      vertex 11.4542 3.51074 5
    endloop
  endfacet
  facet normal 0 0 1
    outer loop
      vertex 11.4542 3.51074 5
      vertex 11.171 2.20878 5
      vertex 12.687 2.68701 5
    endloop
  endfacet
  facet normal 0 0 1
    outer loop
      vertex 11.171 2.20878 5
      vertex 11.403 2.06922 5
      vertex 12.687 2.68701 5
    endloop
  endfacet
  facet normal 0 0 1
    outer loop
      vertex 12.687 2.68701 5
      vertex 11.403 2.06922 5
      vertex 11.6185 1.90541 5
    endloop
  endfacet
  facet normal 0.83147 -0.55557 0
    outer loop
      vertex 13.5107 -1.4542 2
      vertex 13.5107 -1.4542 5
      vertex 12.687 -2.68701 2
    endloop
  endfacet
  facet normal 0.83147 -0.55557 0
    outer loop
      vertex 13.5107 -1.4542 5
      vertex 12.687 -2.68701 5
      vertex 12.687 -2.68701 2
    endloop
  endfacet
  facet normal -0.980785 -0.19509 0
    outer loop
      vertex -6 -1.0842e-15 2
      vertex -6.30448 1.53073 2
      vertex -6 -1.0842e-15 0
    endloop
  endfacet
  facet normal -0.980785 -0.19509 0
    outer loop
      vertex -6.30448 1.53073 2
      vertex -6.30448 1.53073 0
      vertex -6 -1.0842e-15 0
    endloop
  endfacet
  facet normal 0.55557 -0.83147 0
    outer loop
      vertex 12.687 -2.68701 2
      vertex 12.687 -2.68701 5
      vertex 11.4542 -3.51074 2
    endloop
  endfacet
  facet normal 0.55557 -0.83147 0
    outer loop
      vertex 12.687 -2.68701 5
      vertex 11.4542 -3.51074 5
      vertex 11.4542 -3.51074 2
    endloop
  endfacet
  facet normal 0 0 -1
    outer loop
      vertex -13.7244 3.33598 0
      vertex -13.3541 3.7081 0
      vertex -12.8284 2.82843 0
    endloop
  endfacet
  facet normal 0 0 -1
    outer loop
      vertex -12.0396 -4.56508 0
      vertex -11.5307 -3.69552 0
      vertex -11.5497 -4.75377 0
    endloop
  endfacet
  facet normal 0 0 -1
    outer loop
      vertex -11.5307 -3.69552 0
      vertex -11.0427 -4.89006 0
      vertex -11.5497 -4.75377 0
    endloop
  endfacet
  facet normal 0 0 -1
    outer loop
      vertex -11.5497 4.75377 0
      vertex -11.0427 4.89006 0
      vertex -11.5307 3.69552 0
    endloop
  endfacet
  facet normal 0 0 -1
    outer loop
      vertex -13.3541 -3.7081 0
      vertex -12.8284 -2.82843 0
      vertex -12.9468 -4.03934 0
    endloop
  endfacet
  facet normal 0 0 -1
    outer loop
      vertex -12.8284 -2.82843 0
      vertex -11.5307 -3.69552 0
      vertex -12.9468 -4.03934 0
    endloop
  endfacet
  facet normal 0 0 -1
    outer loop
      vertex -12.9468 -4.03934 0
      vertex -11.5307 -3.69552 0
      vertex -12.507 -4.32606 0
    endloop
  endfacet
  facet normal 0 0 -1
    outer loop
      vertex -11.5307 -3.69552 0
      vertex -12.0396 -4.56508 0
      vertex -12.507 -4.32606 0
    endloop
  endfacet
  facet normal 0 0 -1
    outer loop
      vertex -11.0427 -4.89006 0
      vertex -11.5307 -3.69552 0
      vertex -10.5243 -4.97244 0
    endloop
  endfacet
  facet normal 0 0 -1
    outer loop
      vertex -11.5307 -3.69552 0
      vertex -10 -4 0
      vertex -10.5243 -4.97244 0
    endloop
  endfacet
  facet normal 0 0 -1
    outer loop
      vertex -10.5243 -4.97244 0
      vertex -10 -4 0
      vertex -10 -5 0
    endloop
  endfacet
  facet normal 0 0 -1
    outer loop
      vertex -10 -4 0
      vertex -8.46927 -3.69552 0
      vertex -10 -5 0
    endloop
  endfacet
  facet normal 0 0 -1
    outer loop
      vertex -10 -5 0
      vertex -8.46927 -3.69552 0
      vertex 10 -5 0
    endloop
  endfacet
  facet normal 0 0 -1
    outer loop
      vertex -8.46927 -3.69552 0
      vertex -7.17157 -2.82843 0
      vertex 10 -5 0
    endloop
  endfacet
  facet normal 0 0 -1
    outer loop
      vertex 10 -5 0
      vertex -7.17157 -2.82843 0
      vertex -6.30448 -1.53073 0
    endloop
  endfacet
  facet normal 0 0 -1
    outer loop
      vertex -11.5307 3.69552 0
      vertex -11.0427 4.89006 0
      vertex -10 4 0
    endloop
  endfacet
  facet normal 0 0 -1
    outer loop
      vertex -14.9749 0.5 0
      vertex -14.8951 1.01888 0
      vertex -13.9005 0.5 0
    endloop
  endfacet
  facet normal 0 0 -1
    outer loop
      vertex -14.8951 1.01888 0
      vertex -14.7613 1.52652 0
      vertex -13.9005 0.5 0
    endloop
  endfacet
  facet normal 0 0 -1
    outer loop
      vertex -13.9005 0.5 0
      vertex -14.7613 1.52652 0
      vertex -13.6955 1.53073 0
    endloop
  endfacet
  facet normal 0 0 -1
    outer loop
      vertex -14.9749 -0.5 0
      vertex -13.9005 -0.5 0
      vertex -14.8951 -1.01888 0
    endloop
  endfacet
  facet normal 0 0 -1
    outer loop
      vertex -13.9005 -0.5 0
      vertex -13.6955 -1.53073 0
      vertex -14.8951 -1.01888 0
    endloop
  endfacet
  facet normal 0 0 -1
    outer loop
      vertex -14.8951 -1.01888 0
      vertex -13.6955 -1.53073 0
      vertex -14.7613 -1.52652 0
    endloop
  endfacet
  facet normal 0 0 -1
    outer loop
      vertex -13.6955 -1.53073 0
      vertex -14.575 -2.01733 0
      vertex -14.7613 -1.52652 0
    endloop
  endfacet
  facet normal 0 0 -1
    outer loop
      vertex 7.73106 -1.04972 0
      vertex -6.30448 -1.53073 0
      vertex 7.63087 -0.798254 0
    endloop
  endfacet
  facet normal 0 0 -1
    outer loop
      vertex -6.30448 -1.53073 0
      vertex 7.55845 -0.537426 0
      vertex 7.63087 -0.798254 0
    endloop
  endfacet
  facet normal 0 0 -1
    outer loop
      vertex 7.73106 -1.04972 0
      vertex 7.85786 -1.28888 0
      vertex -6.30448 -1.53073 0
    endloop
  endfacet
  facet normal 0 0 -1
    outer loop
      vertex 7.85786 -1.28888 0
      vertex 8.00977 -1.51294 0
      vertex -6.30448 -1.53073 0
    endloop
  endfacet
  facet normal 0 0 -1
    outer loop
      vertex -6.30448 -1.53073 0
      vertex 8.00977 -1.51294 0
      vertex 8.18501 -1.71925 0
    endloop
  endfacet
  facet normal 0 0 -1
    outer loop
      vertex 9.07465 -2.32244 0
      vertex 9.33118 -2.40887 0
      vertex 10 -5 0
    endloop
  endfacet
  facet normal 0 0 -1
    outer loop
      vertex -6.30448 1.53073 0
      vertex -7.17157 2.82843 0
      vertex 10 5 0
    endloop
  endfacet
  facet normal 0 0 -1
    outer loop
      vertex -7.17157 2.82843 0
      vertex -8.46927 3.69552 0
      vertex 10 5 0
    endloop
  endfacet
  facet normal 0 0 -1
    outer loop
      vertex 10 5 0
      vertex -8.46927 3.69552 0
      vertex -10 5 0
    endloop
  endfacet
  facet normal 0 0 -1
    outer loop
      vertex -8.46927 3.69552 0
      vertex -10 4 0
      vertex -10 5 0
    endloop
  endfacet
  facet normal 0 0 -1
    outer loop
      vertex -10 5 0
      vertex -10 4 0
      vertex -10.5243 4.97244 0
    endloop
  endfacet
  facet normal 0 0 -1
    outer loop
      vertex -10 4 0
      vertex -11.0427 4.89006 0
      vertex -10.5243 4.97244 0
    endloop
  endfacet
  facet normal 0 0 -1
    outer loop
      vertex -13.3541 3.7081 0
      vertex -12.9468 4.03934 0
      vertex -12.8284 2.82843 0
    endloop
  endfacet
  facet normal 0 0 -1
    outer loop
      vertex -12.9468 4.03934 0
      vertex -12.507 4.32606 0
      vertex -12.8284 2.82843 0
    endloop
  endfacet
  facet normal 0 0 -1
    outer loop
      vertex -12.8284 2.82843 0
      vertex -12.507 4.32606 0
      vertex -11.5307 3.69552 0
    endloop
  endfacet
  facet normal 0 0 -1
    outer loop
      vertex -12.507 4.32606 0
      vertex -12.0396 4.56508 0
      vertex -11.5307 3.69552 0
    endloop
  endfacet
  facet normal 0 0 -1
    outer loop
      vertex -11.5307 3.69552 0
      vertex -12.0396 4.56508 0
      vertex -11.5497 4.75377 0
    endloop
  endfacet
  facet normal 0 0 -1
    outer loop
      vertex -14.7613 1.52652 0
      vertex -14.575 2.01733 0
      vertex -13.6955 1.53073 0
    endloop
  endfacet
  facet normal 0 0 -1
    outer loop
      vertex -14.575 2.01733 0
      vertex -14.3382 2.48591 0
      vertex -13.6955 1.53073 0
    endloop
  endfacet
  facet normal 0 0 -1
    outer loop
      vertex -13.6955 1.53073 0
      vertex -14.3382 2.48591 0
      vertex -12.8284 2.82843 0
    endloop
  endfacet
  facet normal 0 0 -1
    outer loop
      vertex -14.3382 2.48591 0
      vertex -14.0537 2.92708 0
      vertex -12.8284 2.82843 0
    endloop
  endfacet
  facet normal 0 0 -1
    outer loop
      vertex -12.8284 2.82843 0
      vertex -14.0537 2.92708 0
      vertex -13.7244 3.33598 0
    endloop
  endfacet
  facet normal 0 0 -1
    outer loop
      vertex -13.3541 -3.7081 0
      vertex -13.7244 -3.33598 0
      vertex -12.8284 -2.82843 0
    endloop
  endfacet
  facet normal 0 0 -1
    outer loop
      vertex -13.7244 -3.33598 0
      vertex -14.0537 -2.92708 0
      vertex -12.8284 -2.82843 0
    endloop
  endfacet
  facet normal 0 0 -1
    outer loop
      vertex -12.8284 -2.82843 0
      vertex -14.0537 -2.92708 0
      vertex -13.6955 -1.53073 0
    endloop
  endfacet
  facet normal 0 0 -1
    outer loop
      vertex -14.0537 -2.92708 0
      vertex -14.3382 -2.48591 0
      vertex -13.6955 -1.53073 0
    endloop
  endfacet
  facet normal 0 0 -1
    outer loop
      vertex -13.6955 -1.53073 0
      vertex -14.3382 -2.48591 0
      vertex -14.575 -2.01733 0
    endloop
  endfacet
  facet normal 0 0 -1
    outer loop
      vertex 11.403 -2.06922 0
      vertex 11.6185 -1.90541 0
      vertex 13.4385 -3.62998 0
    endloop
  endfacet
  facet normal 0 0 -1
    outer loop
      vertex 11.6185 -1.90541 0
      vertex 11.815 -1.71925 0
      vertex 13.4385 -3.62998 0
    endloop
  endfacet
  facet normal 0 0 -1
    outer loop
      vertex 13.4385 -3.62998 0
      vertex 11.815 -1.71925 0
      vertex 13.8108 -3.23693 0
    endloop
  endfacet
  facet normal 0 0 -1
    outer loop
      vertex 11.815 -1.71925 0
      vertex 11.9902 -1.51294 0
      vertex 13.8108 -3.23693 0
    endloop
  endfacet
  facet normal 0 0 -1
    outer loop
      vertex 13.8108 -3.23693 0
      vertex 11.9902 -1.51294 0
      vertex 14.1384 -2.80594 0
    endloop
  endfacet
  facet normal 0 0 -1
    outer loop
      vertex 12.5 1.53081e-16 0
      vertex 12.4853 0.270298 0
      vertex 14.9341 0.80891 0
    endloop
  endfacet
  facet normal 0 0 -1
    outer loop
      vertex 8.18501 -1.71925 0
      vertex 8.38153 -1.90541 0
      vertex -6.30448 -1.53073 0
    endloop
  endfacet
  facet normal 0 0 -1
    outer loop
      vertex 8.38153 -1.90541 0
      vertex 8.59703 -2.06922 0
      vertex -6.30448 -1.53073 0
    endloop
  endfacet
  facet normal 0 0 -1
    outer loop
      vertex -6.30448 -1.53073 0
      vertex 8.59703 -2.06922 0
      vertex 10 -5 0
    endloop
  endfacet
  facet normal 0 0 -1
    outer loop
      vertex 8.59703 -2.06922 0
      vertex 8.82898 -2.20878 0
      vertex 10 -5 0
    endloop
  endfacet
  facet normal 0 0 -1
    outer loop
      vertex 10 -5 0
      vertex 8.82898 -2.20878 0
      vertex 9.07465 -2.32244 0
    endloop
  endfacet
  facet normal 0 0 -1
    outer loop
      vertex -6.30448 1.53073 0
      vertex 7.51466 0.270298 0
      vertex -6 -1.0842e-15 0
    endloop
  endfacet
  facet normal 0 0 -1
    outer loop
      vertex 7.51466 0.270298 0
      vertex 7.5 4.59243e-16 0
      vertex -6 -1.0842e-15 0
    endloop
  endfacet
  facet normal 0 0 -1
    outer loop
      vertex -6 -1.0842e-15 0
      vertex 7.5 4.59243e-16 0
      vertex -6.30448 -1.53073 0
    endloop
  endfacet
  facet normal 0 0 -1
    outer loop
      vertex 7.5 4.59243e-16 0
      vertex 7.51466 -0.270298 0
      vertex -6.30448 -1.53073 0
    endloop
  endfacet
  facet normal 0 0 -1
    outer loop
      vertex -6.30448 -1.53073 0
      vertex 7.51466 -0.270298 0
      vertex 7.55845 -0.537426 0
    endloop
  endfacet
  facet normal 0 0 -1
    outer loop
      vertex -6.30448 1.53073 0
      vertex 8.38153 1.90541 0
      vertex 8.18501 1.71925 0
    endloop
  endfacet
  facet normal 0 0 -1
    outer loop
      vertex 9.33118 -2.40887 0
      vertex 9.59555 -2.46707 0
      vertex 10 -5 0
    endloop
  endfacet
  facet normal 0 0 -1
    outer loop
      vertex 9.59555 -2.46707 0
      vertex 9.86465 -2.49633 0
      vertex 10 -5 0
    endloop
  endfacet
  facet normal 0 0 -1
    outer loop
      vertex 10 -5 0
      vertex 9.86465 -2.49633 0
      vertex 10.5406 -4.97069 0
    endloop
  endfacet
  facet normal 0 0 -1
    outer loop
      vertex 9.86465 -2.49633 0
      vertex 10.1353 -2.49633 0
      vertex 10.5406 -4.97069 0
    endloop
  endfacet
  facet normal 0 0 -1
    outer loop
      vertex 10.5406 -4.97069 0
      vertex 10.1353 -2.49633 0
      vertex 11.0749 -4.8831 0
    endloop
  endfacet
  facet normal 0 0 -1
    outer loop
      vertex 13.4385 -3.62998 0
      vertex 13.0259 -3.98047 0
      vertex 11.403 -2.06922 0
    endloop
  endfacet
  facet normal 0 0 -1
    outer loop
      vertex 13.0259 -3.98047 0
      vertex 12.5778 -4.28429 0
      vertex 11.403 -2.06922 0
    endloop
  endfacet
  facet normal 0 0 -1
    outer loop
      vertex 11.403 -2.06922 0
      vertex 12.5778 -4.28429 0
      vertex 11.171 -2.20878 0
    endloop
  endfacet
  facet normal 0 0 -1
    outer loop
      vertex 12.5778 -4.28429 0
      vertex 12.0994 -4.53788 0
      vertex 11.171 -2.20878 0
    endloop
  endfacet
  facet normal 0 0 -1
    outer loop
      vertex 11.171 -2.20878 0
      vertex 12.0994 -4.53788 0
      vertex 10.9253 -2.32244 0
    endloop
  endfacet
  facet normal 0 0 -1
    outer loop
      vertex 12.0994 -4.53788 0
      vertex 11.5965 -4.73827 0
      vertex 10.9253 -2.32244 0
    endloop
  endfacet
  facet normal 0 0 -1
    outer loop
      vertex 10.9253 -2.32244 0
      vertex 11.5965 -4.73827 0
      vertex 10.6688 -2.40887 0
    endloop
  endfacet
  facet normal 0 0 -1
    outer loop
      vertex 11.5965 -4.73827 0
      vertex 11.0749 -4.8831 0
      vertex 10.6688 -2.40887 0
    endloop
  endfacet
  facet normal 0 0 -1
    outer loop
      vertex 10.6688 -2.40887 0
      vertex 11.0749 -4.8831 0
      vertex 10.4045 -2.46707 0
    endloop
  endfacet
  facet normal 0 0 -1
    outer loop
      vertex 11.0749 -4.8831 0
      vertex 10.1353 -2.49633 0
      vertex 10.4045 -2.46707 0
    endloop
  endfacet
  facet normal 0 0 -1
    outer loop
      vertex 14.9341 0.80891 0
      vertex 12.4853 0.270298 0
      vertex 14.8178 1.33764 0
    endloop
  endfacet
  facet normal 0 0 -1
    outer loop
      vertex 10 5 0
      vertex 9.59555 2.46707 0
      vertex 9.33118 2.40887 0
    endloop
  endfacet
  facet normal 0 0 -1
    outer loop
      vertex 8.18501 1.71925 0
      vertex 8.00977 1.51294 0
      vertex -6.30448 1.53073 0
    endloop
  endfacet
  facet normal 0 0 -1
    outer loop
      vertex 8.00977 1.51294 0
      vertex 7.85786 1.28888 0
      vertex -6.30448 1.53073 0
    endloop
  endfacet
  facet normal 0 0 -1
    outer loop
      vertex -6.30448 1.53073 0
      vertex 7.85786 1.28888 0
      vertex 7.73106 1.04972 0
    endloop
  endfacet
  facet normal 0 0 -1
    outer loop
      vertex 7.73106 1.04972 0
      vertex 7.63087 0.798254 0
      vertex -6.30448 1.53073 0
    endloop
  endfacet
  facet normal 0 0 -1
    outer loop
      vertex 7.63087 0.798254 0
      vertex 7.55845 0.537426 0
      vertex -6.30448 1.53073 0
    endloop
  endfacet
  facet normal 0 0 -1
    outer loop
      vertex -6.30448 1.53073 0
      vertex 7.55845 0.537426 0
      vertex 7.51466 0.270298 0
    endloop
  endfacet
  facet normal 0 0 -1
    outer loop
      vertex 14.8178 -1.33764 0
      vertex 12.4416 -0.537426 0
      vertex 14.9341 -0.80891 0
    endloop
  endfacet
  facet normal 0 0 -1
    outer loop
      vertex 12.4416 -0.537426 0
      vertex 12.4853 -0.270298 0
      vertex 14.9341 -0.80891 0
    endloop
  endfacet
  facet normal 0 0 -1
    outer loop
      vertex 14.9341 -0.80891 0
      vertex 12.4853 -0.270298 0
      vertex 14.9927 -0.270695 0
    endloop
  endfacet
  facet normal 0 0 -1
    outer loop
      vertex 12.4853 -0.270298 0
      vertex 12.5 1.53081e-16 0
      vertex 14.9927 -0.270695 0
    endloop
  endfacet
  facet normal 0 0 -1
    outer loop
      vertex 14.9927 -0.270695 0
      vertex 12.5 1.53081e-16 0
      vertex 14.9927 0.270695 0
    endloop
  endfacet
  facet normal 0 0 -1
    outer loop
      vertex 12.5 1.53081e-16 0
      vertex 14.9341 0.80891 0
      vertex 14.9927 0.270695 0
    endloop
  endfacet
  facet normal 0 0 -1
    outer loop
      vertex 12.4853 0.270298 0
      vertex 12.4416 0.537426 0
      vertex 14.8178 1.33764 0
    endloop
  endfacet
  facet normal 0 0 -1
    outer loop
      vertex 12.4416 0.537426 0
      vertex 12.3691 0.798254 0
      vertex 14.8178 1.33764 0
    endloop
  endfacet
  facet normal 0 0 -1
    outer loop
      vertex 14.8178 1.33764 0
      vertex 12.3691 0.798254 0
      vertex 14.6449 1.85069 0
    endloop
  endfacet
  facet normal 0 0 -1
    outer loop
      vertex 12.3691 0.798254 0
      vertex 12.2689 1.04972 0
      vertex 14.6449 1.85069 0
    endloop
  endfacet
  facet normal 0 0 -1
    outer loop
      vertex 14.6449 1.85069 0
      vertex 12.2689 1.04972 0
      vertex 14.4176 2.34204 0
    endloop
  endfacet
  facet normal 0 0 -1
    outer loop
      vertex 12.2689 1.04972 0
      vertex 12.1421 1.28888 0
      vertex 14.4176 2.34204 0
    endloop
  endfacet
  facet normal 0 0 -1
    outer loop
      vertex 14.4176 2.34204 0
      vertex 12.1421 1.28888 0
      vertex 14.1384 2.80594 0
    endloop
  endfacet
  facet normal 0 0 -1
    outer loop
      vertex 12.1421 1.28888 0
      vertex 11.9902 1.51294 0
      vertex 14.1384 2.80594 0
    endloop
  endfacet
  facet normal 0 0 -1
    outer loop
      vertex 14.1384 2.80594 0
      vertex 11.9902 1.51294 0
      vertex 13.8108 3.23693 0
    endloop
  endfacet
  facet normal 0 0 -1
    outer loop
      vertex 14.1384 -2.80594 0
      vertex 11.9902 -1.51294 0
      vertex 14.4176 -2.34204 0
    endloop
  endfacet
  facet normal 0 0 -1
    outer loop
      vertex 11.9902 -1.51294 0
      vertex 12.1421 -1.28888 0
      vertex 14.4176 -2.34204 0
    endloop
  endfacet
  facet normal 0 0 -1
    outer loop
      vertex 14.4176 -2.34204 0
      vertex 12.1421 -1.28888 0
      vertex 14.6449 -1.85069 0
    endloop
  endfacet
  facet normal 0 0 -1
    outer loop
      vertex 12.1421 -1.28888 0
      vertex 12.2689 -1.04972 0
      vertex 14.6449 -1.85069 0
    endloop
  endfacet
  facet normal 0 0 -1
    outer loop
      vertex 14.6449 -1.85069 0
      vertex 12.2689 -1.04972 0
      vertex 14.8178 -1.33764 0
    endloop
  endfacet
  facet normal 0 0 -1
    outer loop
      vertex 12.2689 -1.04972 0
      vertex 12.3691 -0.798254 0
      vertex 14.8178 -1.33764 0
    endloop
  endfacet
  facet normal 0 0 -1
    outer loop
      vertex 14.8178 -1.33764 0
      vertex 12.3691 -0.798254 0
      vertex 12.4416 -0.537426 0
    endloop
  endfacet
  facet normal 0 0 -1
    outer loop
      vertex 13.8108 3.23693 0
      vertex 11.9902 1.51294 0
      vertex 13.4385 3.62998 0
    endloop
  endfacet
  facet normal 0 0 -1
    outer loop
      vertex 11.9902 1.51294 0
      vertex 11.815 1.71925 0
      vertex 13.4385 3.62998 0
    endloop
  endfacet
  facet normal 0 0 -1
    outer loop
      vertex 13.4385 3.62998 0
      vertex 11.815 1.71925 0
      vertex 13.0259 3.98047 0
    endloop
  endfacet
  facet normal 0 0 -1
    outer loop
      vertex 11.815 1.71925 0
      vertex 11.6185 1.90541 0
      vertex 13.0259 3.98047 0
    endloop
  endfacet
  facet normal 0 0 -1
    outer loop
      vertex 13.0259 3.98047 0
      vertex 11.6185 1.90541 0
      vertex 12.5778 4.28429 0
    endloop
  endfacet
  facet normal 0 0 -1
    outer loop
      vertex 11.6185 1.90541 0
      vertex 11.403 2.06922 0
      vertex 12.5778 4.28429 0
    endloop
  endfacet
  facet normal 0 0 -1
    outer loop
      vertex 12.5778 4.28429 0
      vertex 11.403 2.06922 0
      vertex 12.0994 4.53788 0
    endloop
  endfacet
  facet normal 0 0 -1
    outer loop
      vertex 9.33118 2.40887 0
      vertex 9.07465 2.32244 0
      vertex 10 5 0
    endloop
  endfacet
  facet normal 0 0 -1
    outer loop
      vertex 9.07465 2.32244 0
      vertex 8.82898 2.20878 0
      vertex 10 5 0
    endloop
  endfacet
  facet normal 0 0 -1
    outer loop
      vertex 10 5 0
      vertex 8.82898 2.20878 0
      vertex -6.30448 1.53073 0
    endloop
  endfacet
  facet normal 0 0 -1
    outer loop
      vertex 8.82898 2.20878 0
      vertex 8.59703 2.06922 0
      vertex -6.30448 1.53073 0
    endloop
  endfacet
  facet normal 0 0 -1
    outer loop
      vertex -6.30448 1.53073 0
      vertex 8.59703 2.06922 0
      vertex 8.38153 1.90541 0
    endloop
  endfacet
  facet normal 0 0 -1
    outer loop
      vertex 11.403 2.06922 0
      vertex 11.171 2.20878 0
      vertex 12.0994 4.53788 0
    endloop
  endfacet
  facet normal 0 0 -1
    outer loop
      vertex 11.171 2.20878 0
      vertex 10.9253 2.32244 0
      vertex 12.0994 4.53788 0
    endloop
  endfacet
  facet normal 0 0 -1
    outer loop
      vertex 12.0994 4.53788 0
      vertex 10.9253 2.32244 0
      vertex 11.5965 4.73827 0
    endloop
  endfacet
  facet normal 0 0 -1
    outer loop
      vertex 10.9253 2.32244 0
      vertex 10.6688 2.40887 0
      vertex 11.5965 4.73827 0
    endloop
  endfacet
  facet normal 0 0 -1
    outer loop
      vertex 11.5965 4.73827 0
      vertex 10.6688 2.40887 0
      vertex 11.0749 4.8831 0
    endloop
  endfacet
  facet normal 0 0 -1
    outer loop
      vertex 10.6688 2.40887 0
      vertex 10.4045 2.46707 0
      vertex 11.0749 4.8831 0
    endloop
  endfacet
  facet normal 0 0 -1
    outer loop
      vertex 11.0749 4.8831 0
      vertex 10.4045 2.46707 0
      vertex 10.5406 4.97069 0
    endloop
  endfacet
  facet normal 0 0 -1
    outer loop
      vertex 10.4045 2.46707 0
      vertex 10.1353 2.49633 0
      vertex 10.5406 4.97069 0
    endloop
  endfacet
  facet normal 0 0 -1
    outer loop
      vertex 10.5406 4.97069 0
      vertex 10.1353 2.49633 0
      vertex 10 5 0
    endloop
  endfacet
  facet normal 0 0 -1
    outer loop
      vertex 10.1353 2.49633 0
      vertex 9.86465 2.49633 0
      vertex 10 5 0
    endloop
  endfacet
  facet normal 0 0 -1
    outer loop
      vertex 10 5 0
      vertex 9.86465 2.49633 0
      vertex 9.59555 2.46707 0
    endloop
  endfacet
  facet normal -0.980785 0.19509 0
    outer loop
      vertex -6.30448 -1.53073 2
      vertex -6 -1.0842e-15 2
      vertex -6.30448 -1.53073 0
    endloop
  endfacet
  facet normal -0.980785 0.19509 0
    outer loop
      vertex -6 -1.0842e-15 2
      vertex -6 -1.0842e-15 0
      vertex -6.30448 -1.53073 0
    endloop
  endfacet
  facet normal 0.19509 -0.980785 0
    outer loop
      vertex 11.4542 -3.51074 2
      vertex 11.4542 -3.51074 5
      vertex 10 -3.8 2
    endloop
  endfacet
  facet normal 0.19509 -0.980785 0
    outer loop
      vertex 11.4542 -3.51074 5
      vertex 10 -3.8 5
      vertex 10 -3.8 2
    endloop
  endfacet
  facet normal -0.83147 0.55557 0
    outer loop
      vertex -7.17157 -2.82843 2
      vertex -6.30448 -1.53073 2
      vertex -7.17157 -2.82843 0
    endloop
  endfacet
  facet normal -0.83147 0.55557 0
    outer loop
      vertex -6.30448 -1.53073 2
      vertex -6.30448 -1.53073 0
      vertex -7.17157 -2.82843 0
    endloop
  endfacet
  facet normal -0.19509 -0.980785 0
    outer loop
      vertex 10 -3.8 2
      vertex 10 -3.8 5
      vertex 8.5458 -3.51074 2
    endloop
  endfacet
  facet normal -0.19509 -0.980785 0
    outer loop
      vertex 10 -3.8 5
      vertex 8.5458 -3.51074 5
      vertex 8.5458 -3.51074 2
    endloop
  endfacet
  facet normal -0.55557 0.83147 0
    outer loop
      vertex -8.46927 -3.69552 2
      vertex -7.17157 -2.82843 2
      vertex -8.46927 -3.69552 0
    endloop
  endfacet
  facet normal -0.55557 0.83147 0
    outer loop
      vertex -7.17157 -2.82843 2
      vertex -7.17157 -2.82843 0
      vertex -8.46927 -3.69552 0
    endloop
  endfacet
  facet normal -0.55557 -0.83147 0
    outer loop
      vertex 8.5458 -3.51074 2
      vertex 8.5458 -3.51074 5
      vertex 7.31299 -2.68701 2
    endloop
  endfacet
  facet normal -0.55557 -0.83147 0
    outer loop
      vertex 8.5458 -3.51074 5
      vertex 7.31299 -2.68701 5
      vertex 7.31299 -2.68701 2
    endloop
  endfacet
  facet normal -0.19509 0.980785 0
    outer loop
      vertex -10 -4 2
      vertex -8.46927 -3.69552 2
      vertex -10 -4 0
    endloop
  endfacet
  facet normal -0.19509 0.980785 0
    outer loop
      vertex -8.46927 -3.69552 2
      vertex -8.46927 -3.69552 0
      vertex -10 -4 0
    endloop
  endfacet
  facet normal -0.83147 -0.55557 0
    outer loop
      vertex 7.31299 -2.68701 2
      vertex 7.31299 -2.68701 5
      vertex 6.48926 -1.4542 2
    endloop
  endfacet
  facet normal -0.83147 -0.55557 0
    outer loop
      vertex 7.31299 -2.68701 5
      vertex 6.48926 -1.4542 5
      vertex 6.48926 -1.4542 2
    endloop
  endfacet
  facet normal 0.19509 0.980785 0
    outer loop
      vertex -11.5307 -3.69552 2
      vertex -10 -4 2
      vertex -11.5307 -3.69552 0
    endloop
  endfacet
  facet normal 0.19509 0.980785 0
    outer loop
      vertex -10 -4 2
      vertex -10 -4 0
      vertex -11.5307 -3.69552 0
    endloop
  endfacet
  facet normal -0.980785 -0.19509 0
    outer loop
      vertex 6.48926 -1.4542 2
      vertex 6.48926 -1.4542 5
      vertex 6.2 -1.95156e-15 2
    endloop
  endfacet
  facet normal -0.980785 -0.19509 2.38034e-17
    outer loop
      vertex 6.48926 -1.4542 5
      vertex 6.2 -1.84314e-15 5
      vertex 6.2 -1.95156e-15 2
    endloop
  endfacet
  facet normal 0.55557 0.83147 0
    outer loop
      vertex -12.8284 -2.82843 2
      vertex -11.5307 -3.69552 2
      vertex -12.8284 -2.82843 0
    endloop
  endfacet
  facet normal 0.55557 0.83147 0
    outer loop
      vertex -11.5307 -3.69552 2
      vertex -11.5307 -3.69552 0
      vertex -12.8284 -2.82843 0
    endloop
  endfacet
  facet normal -0.980785 0.19509 -7.05058e-18
    outer loop
      vertex 6.2 -1.95156e-15 2
      vertex 6.2 -1.84314e-15 5
      vertex 6.48926 1.4542 2
    endloop
  endfacet
  facet normal -0.980785 0.19509 0
    outer loop
      vertex 6.2 -1.84314e-15 5
      vertex 6.48926 1.4542 5
      vertex 6.48926 1.4542 2
    endloop
  endfacet
  facet normal 0.83147 0.55557 0
    outer loop
      vertex -13.6955 -1.53073 2
      vertex -12.8284 -2.82843 2
      vertex -13.6955 -1.53073 0
    endloop
  endfacet
  facet normal 0.83147 0.55557 0
    outer loop
      vertex -12.8284 -2.82843 2
      vertex -12.8284 -2.82843 0
      vertex -13.6955 -1.53073 0
    endloop
  endfacet
endsolid Onshape
